<svg width="131" height="131" viewBox="0 0 131 131" fill="none" xmlns="http://www.w3.org/2000/svg">
<g clipPath="url(#clip0_80_6248)">
<rect width="131" height="131" rx="65.5" fill="white"/>
<path d="M-0.0236359 40.2767C9.05336 40.2767 16.4117 32.9183 16.4117 23.8414C16.4117 14.7644 9.05336 7.40601 -0.0236359 7.40601C-9.10063 7.40601 -16.459 14.7644 -16.459 23.8414C-16.459 32.9183 -9.10063 40.2767 -0.0236359 40.2767Z" fill="url(#paint0_linear_80_6248)"/>
<path d="M79.0237 5.31028C79.0237 4.8994 79.3556 4.56753 79.7665 4.56753H82.3866C82.8449 4.56753 83.2179 4.19457 83.2179 3.73628C83.2179 3.27799 82.8449 2.90503 82.3866 2.90503H73.0059C72.5507 2.90503 72.1809 3.27482 72.1809 3.72996C72.1809 4.18509 72.5507 4.55489 73.0059 4.55489H74.5324C74.9433 4.55489 75.2752 4.88675 75.2752 5.29764C75.2752 5.70852 74.9433 6.04039 74.5324 6.04039H68.9444C68.5051 6.04039 68.1479 6.39754 68.1479 6.83687C68.1479 7.2762 68.5051 7.63335 68.9444 7.63335H80.3828C80.819 7.63335 81.173 7.27936 81.173 6.84319C81.173 6.40702 80.819 6.05303 80.3828 6.05303H79.7633C79.3524 6.05303 79.0206 5.72116 79.0206 5.31028H79.0237Z" fill="url(#paint1_linear_80_6248)"/>
<path d="M46.7444 15.2947C46.7444 14.7637 47.1742 14.3339 47.7052 14.3339H49.2381C49.8766 14.3339 50.3949 13.8155 50.3949 13.1771C50.3949 12.5386 49.8766 12.0203 49.2381 12.0203H31.3267C30.6915 12.0203 30.1763 12.5354 30.1763 13.1707C30.1763 13.806 30.6915 14.3212 31.3267 14.3212H38.3529C38.8838 14.3212 39.3137 14.7511 39.3137 15.282C39.3137 15.813 38.8838 16.2429 38.3529 16.2429H35.1827C34.5696 16.2429 34.0733 16.7391 34.0733 17.3523C34.0733 17.9654 34.5696 18.4617 35.1827 18.4617H53.5903C54.2003 18.4617 54.6934 17.9686 54.6934 17.3586C54.6934 16.7486 54.2003 16.2555 53.5903 16.2555H47.702C47.1711 16.2555 46.7412 15.8257 46.7412 15.2947H46.7444Z" fill="url(#paint2_linear_80_6248)"/>
<path d="M85.3168 35.3364C85.3168 34.7643 85.7814 34.2997 86.3535 34.2997H90.0072C90.6457 34.2997 91.164 33.7813 91.164 33.1429C91.164 32.5044 90.6457 31.9861 90.0072 31.9861H76.9158C76.2805 31.9861 75.7654 32.5013 75.7654 33.1366C75.7654 33.7718 76.2805 34.287 76.9158 34.287H79.0493C79.6213 34.287 80.086 34.7516 80.086 35.3237C80.086 35.8958 79.6213 36.3604 79.0493 36.3604H71.252C70.6388 36.3604 70.1426 36.8566 70.1426 37.4698C70.1426 38.083 70.6388 38.5792 71.252 38.5792H87.2164C87.8264 38.5792 88.3194 38.0861 88.3194 37.4761C88.3194 36.8661 87.8264 36.3731 87.2164 36.3731H86.3535C85.7814 36.3731 85.3168 35.9084 85.3168 35.3364Z" fill="url(#paint3_linear_80_6248)"/>
<path d="M106.648 22.6211C106.648 22.2608 106.939 21.97 107.299 21.97H109.594C109.995 21.97 110.321 21.6445 110.321 21.2431C110.321 20.8417 109.995 20.5161 109.594 20.5161H101.373C100.975 20.5161 100.649 20.8385 100.649 21.2399C100.649 21.6381 100.972 21.9637 101.373 21.9637H102.713C103.074 21.9637 103.364 22.2545 103.364 22.6148C103.364 22.9751 103.074 23.2659 102.713 23.2659H97.8174C97.4318 23.2659 97.1221 23.5788 97.1221 23.9612C97.1221 24.3468 97.435 24.6566 97.8174 24.6566H107.84C108.222 24.6566 108.532 24.3468 108.532 23.9644C108.532 23.5819 108.222 23.2722 107.84 23.2722H107.296C106.936 23.2722 106.645 22.9814 106.645 22.6211H106.648Z" fill="url(#paint4_linear_80_6248)"/>
<path d="M5.92772 44.3506C5.92772 43.9429 6.25959 43.611 6.66731 43.611H9.27484C9.72997 43.611 10.1029 43.2412 10.1029 42.7829C10.1029 42.3278 9.73314 41.9548 9.27484 41.9548H-0.0680246C-0.523157 41.9548 -0.889791 42.3215 -0.889791 42.7766C-0.889791 43.2317 -0.523157 43.5984 -0.0680246 43.5984H1.45541C1.86313 43.5984 2.195 43.9302 2.195 44.338C2.195 44.7457 1.86313 45.0776 1.45541 45.0776H-4.11049C-4.54666 45.0776 -4.90381 45.4315 -4.90381 45.8709C-4.90381 46.307 -4.54982 46.6642 -4.11049 46.6642H7.28363C7.7198 46.6642 8.07064 46.3102 8.07064 45.8772C8.07064 45.441 7.71664 45.0902 7.28363 45.0902H6.66731C6.25959 45.0902 5.92772 44.7583 5.92772 44.3506Z" fill="url(#paint5_linear_80_6248)"/>
<path d="M80.8003 132.871C80.8003 132.871 98.5852 120.94 94.0402 90.253C93.996 89.9622 94.1382 89.6714 94.3942 89.5292C94.783 89.3143 95.2729 89.5008 95.4119 89.9243C96.6414 93.6538 100.817 110.159 88.2942 134.088L80.8035 132.874L80.8003 132.871Z" fill="#FA8005"/>
<path d="M88.4741 124.17C88.4741 124.17 88.9198 125.105 91.1133 125.472C91.1133 125.472 89.5488 125.94 87.7188 125.349L88.4741 124.17Z" fill="white"/>
<path d="M92.9084 123.721C92.9084 123.721 91.5841 124.043 90.4336 123.184C90.4336 123.184 90.6928 124.448 92.6113 124.517L92.9084 123.721Z" fill="white"/>
<path d="M90.5221 120.374C90.5221 120.374 91.1353 121.196 92.6809 121.597C92.6809 121.597 91.3629 121.844 90.1523 121.136L90.5221 120.374Z" fill="white"/>
<path d="M94.562 118.683C94.562 118.683 93.1239 119.024 92.5044 118.696C92.5044 118.696 93.6675 119.559 94.347 119.413L94.562 118.683Z" fill="white"/>
<path d="M92.5263 115.263C92.5263 115.263 93.3512 116.063 94.3405 115.924C94.3405 115.924 93.7242 116.562 92.2734 116.022L92.5231 115.263H92.5263Z" fill="white"/>
<path d="M95.9299 113.066C95.9299 113.066 95.0386 113.544 93.8818 113.266C93.8818 113.266 94.4855 113.876 95.8003 113.705L95.9299 113.066Z" fill="white"/>
<path d="M93.7211 110.706C93.7211 110.706 94.6503 111.037 95.5416 110.81C95.5416 110.81 95.1908 111.344 93.582 111.249L93.7211 110.702V110.706Z" fill="white"/>
<path d="M96.6127 108.898C96.6127 108.898 95.8225 109.173 95.0103 108.993C95.0103 108.993 95.674 109.599 96.5463 109.407L96.6127 108.901V108.898Z" fill="white"/>
<path d="M94.5106 105.532C94.5106 105.532 95.7622 105.961 96.369 105.478C96.369 105.478 96.2205 106.467 94.4727 106.167L94.5106 105.532Z" fill="white"/>
<path d="M97.0675 102.481C97.0675 102.481 96.6787 103.019 95.5757 103.155C95.5757 103.155 96.5144 103.61 97.0233 103.24L97.0675 102.481Z" fill="white"/>
<path d="M94.7824 100.351C94.7824 100.351 95.3292 100.386 96.5081 99.6147C96.5081 99.6147 95.4651 101.065 94.7729 101.1L94.7824 100.348V100.351Z" fill="white"/>
<path d="M96.7866 96.606C96.7866 96.606 95.9522 97.3076 95.2095 97.2634C95.2095 97.2634 95.9111 97.5131 96.8498 97.197L96.7866 96.606Z" fill="white"/>
<path d="M94.5269 94.3459C94.5269 94.3459 95.5509 94.3554 96.0124 93.6379C96.0124 93.6379 96.2178 94.2543 94.5932 95.1203L94.53 94.3459H94.5269Z" fill="white"/>
<path d="M95.7846 91.1726C95.7846 91.1726 95.4306 92.1145 94.6562 92.1492C94.6562 92.1492 95.5128 92.5159 95.9616 91.8648L95.7846 91.1726Z" fill="white"/>
<path d="M94.833 89.6967C92.3866 89.2827 89.6053 89.4944 87.3233 90.8219C86.6469 90.4553 85.6703 90.1329 84.7726 89.8421C84.5482 89.7726 84.327 89.6999 84.1184 89.6303C84.2827 89.7568 84.4439 89.88 84.5925 90.0033C85.3953 90.6575 85.9895 91.2581 86.2297 91.5078C85.7746 91.8143 85.3479 92.1336 84.9496 92.4433C84.4755 92.26 83.8023 92.0293 83.186 91.8649C82.6139 91.7132 82.0892 91.6184 81.8111 91.6784C82.1904 91.8617 82.5823 92.1114 82.9363 92.3611C83.4072 92.6898 83.8086 93.0217 84.0267 93.2082C82.8478 94.2322 82.1209 95.0508 82.1209 95.0508L79.665 94.8391C82.8099 80.9038 94.6275 89.5513 94.8266 89.6967H94.833Z" fill="#93E634"/>
<g style="mix-blend-mode:multiply" opacity="0.2">
<path d="M84.0304 93.2082C82.8515 94.2322 82.1245 95.0508 82.1245 95.0508C82.1245 95.0508 82.2699 93.7929 82.9368 92.3643C83.4077 92.693 83.8091 93.0248 84.0272 93.2113L84.0304 93.2082Z" fill="#93E634"/>
</g>
<g style="mix-blend-mode:multiply" opacity="0.2">
<path d="M86.2297 91.5079C85.7746 91.8145 85.3479 92.1337 84.9497 92.4434C84.4756 92.2601 83.8024 92.0294 83.186 91.865C83.5337 91.2234 83.992 90.5723 84.5925 90.0034C85.3953 90.6577 85.9895 91.2582 86.2297 91.5079Z" fill="#93E634"/>
</g>
<g style="mix-blend-mode:multiply" opacity="0.2">
<path d="M94.8333 89.6966C92.3869 89.2826 89.6056 89.4943 87.3236 90.8218C86.6472 90.4552 85.6706 90.1328 84.7729 89.842C86.6093 88.2206 89.6941 87.3925 94.8301 89.6966H94.8333Z" fill="#93E634"/>
</g>
<path d="M105.485 77.8473L104.751 80.202C104.751 80.202 103.718 80.5623 102.324 81.2672C102.191 80.8658 101.923 79.9745 101.802 79.1179C101.777 78.9536 101.761 78.7924 101.752 78.6343C101.66 78.7671 101.584 78.9947 101.521 79.2696C101.357 80.0092 101.287 81.1155 101.271 81.8266C100.832 82.0731 100.377 82.3513 99.9219 82.6547C99.7986 82.3765 99.5236 81.7318 99.255 80.9005C99.1633 80.6161 99.0717 80.3127 98.9863 79.9903C98.9579 80.3822 98.92 80.812 98.8915 81.2419C98.8378 82.0131 98.8062 82.7938 98.8726 83.4038C96.7802 85.0125 95.5318 87.5094 94.9881 89.9273C94.9881 89.9273 91.287 75.4516 105.491 77.841L105.485 77.8473Z" fill="#93E634"/>
<g style="mix-blend-mode:multiply" opacity="0.2">
<path d="M98.8664 83.4102C96.774 85.0189 95.5256 87.5159 94.9819 89.9337C95.4402 85.7901 97.0553 83.0499 98.8885 81.2483C98.8348 82.0195 98.8031 82.8002 98.8695 83.4102H98.8664Z" fill="#93E634"/>
</g>
<g style="mix-blend-mode:multiply" opacity="0.2">
<path d="M101.268 81.8299C100.829 82.0764 100.374 82.3546 99.9188 82.658C99.7956 82.3799 99.5206 81.7351 99.252 80.9038C100.004 80.2211 100.782 79.6902 101.521 79.2729C101.357 80.0125 101.287 81.1188 101.272 81.8299H101.268Z" fill="#93E634"/>
</g>
<g style="mix-blend-mode:multiply" opacity="0.2">
<path d="M105.484 77.8474L104.751 80.2021C104.751 80.2021 103.718 80.5624 102.324 81.2672C102.191 80.8658 101.922 79.9745 101.802 79.118C103.816 78.0497 105.484 77.8474 105.484 77.8474Z" fill="#93E634"/>
</g>
<path d="M86.9063 83.7168C86.802 83.5651 86.704 83.4166 86.6092 83.2743C86.6471 83.4197 86.6819 83.5619 86.7135 83.701C86.9695 84.7851 87.077 85.6954 87.1117 86.0557C86.5649 86.0178 86.0308 86.0051 85.5282 86.0051C85.209 85.4741 84.7096 84.7029 84.2482 84.1435C83.9795 83.818 83.7267 83.5619 83.5276 83.464C83.6603 83.7358 83.7741 84.0329 83.8752 84.3363C84.1059 85.0158 84.2577 85.6922 84.3272 86.0367C82.769 86.1158 81.6912 86.3117 81.6912 86.3117L79.8896 84.6302C91.053 75.5276 94.9975 89.937 94.9975 89.937C93.3287 88.1038 91.0056 86.5551 88.3918 86.1884C88.0726 85.4457 87.4531 84.5323 86.9031 83.7168H86.9063Z" fill="#5DA625"/>
<g style="mix-blend-mode:multiply" opacity="0.2">
<path d="M83.8813 84.3362C84.112 85.0157 84.2637 85.6921 84.3332 86.0366C82.775 86.1156 81.6973 86.3116 81.6973 86.3116C82.4084 85.3982 83.1417 84.7566 83.8813 84.3393V84.3362Z" fill="#BACC3A"/>
</g>
<g style="mix-blend-mode:multiply" opacity="0.2">
<path d="M86.7138 83.6977C86.9698 84.7818 87.0773 85.6921 87.1121 86.0524C86.5653 86.0145 86.0311 86.0018 85.5286 86.0018C85.2094 85.4708 84.71 84.6996 84.2485 84.1402C85.0703 83.7546 85.8984 83.6313 86.7107 83.6977H86.7138Z" fill="#BACC3A"/>
</g>
<g style="mix-blend-mode:multiply" opacity="0.2">
<path d="M95.0002 89.9338C93.3313 88.1006 91.0083 86.5519 88.3944 86.1852C88.0752 85.4425 87.4557 84.5291 86.9058 83.7136C91.2137 84.2162 95.0002 89.9306 95.0002 89.9306V89.9338Z" fill="#BACC3A"/>
</g>
<path d="M110.561 86.7605L108.532 88.1606C108.532 88.1606 107.495 87.8098 105.965 87.5032C106.136 87.0291 106.581 85.8881 107.138 85.079C106.569 85.2592 105.409 86.5392 104.789 87.2978C104.29 87.2219 103.762 87.1587 103.215 87.1145C103.313 86.7162 103.607 85.6416 104.122 84.4374C103.389 85.2465 102.435 86.239 101.926 87.0576C99.2866 87.0323 96.7613 88.227 94.8428 89.7947C94.8428 89.7947 100.861 76.1186 110.564 86.7636L110.561 86.7605Z" fill="#5DA625"/>
<path d="M110.561 86.7606L108.532 88.1607C108.532 88.1607 107.495 87.8099 105.965 87.5033C106.101 87.124 106.417 86.3149 106.818 85.5911C106.92 85.411 107.024 85.2403 107.135 85.0791C106.954 85.136 106.714 85.3067 106.452 85.5342C105.886 86.021 105.21 86.7827 104.789 87.2979C104.29 87.222 103.762 87.1588 103.215 87.1146C103.288 86.8269 103.462 86.179 103.749 85.3857C103.857 85.0854 103.98 84.7662 104.122 84.4375C103.844 84.7441 103.535 85.0791 103.228 85.4204C102.725 85.9767 102.239 86.552 101.926 87.0577C99.2866 87.0355 96.7613 88.2239 94.8428 89.7948C94.8428 89.7948 100.861 76.1218 110.564 86.7637L110.561 86.7606Z" fill="#489F1D"/>
<g style="mix-blend-mode:multiply" opacity="0.2">
<path d="M103.225 85.4172C102.722 85.9735 102.236 86.5488 101.923 87.0545C99.2837 87.0323 96.7584 88.2207 94.8398 89.7916C97.5232 86.751 100.551 85.6448 103.225 85.4172Z" fill="#489F1D"/>
</g>
<g style="mix-blend-mode:multiply" opacity="0.2">
<path d="M106.452 85.528C105.886 86.0147 105.21 86.7764 104.789 87.2916C104.29 87.2158 103.762 87.1526 103.215 87.1083C103.288 86.8207 103.462 86.1728 103.749 85.3794C104.717 85.3352 105.63 85.4016 106.455 85.528H106.452Z" fill="#489F1D"/>
</g>
<g style="mix-blend-mode:multiply" opacity="0.2">
<path d="M110.561 86.7605L108.532 88.1607C108.532 88.1607 107.495 87.8098 105.965 87.5033C106.101 87.124 106.417 86.3149 106.819 85.5911C109.015 85.9767 110.501 86.7321 110.558 86.7605H110.561Z" fill="#489F1D"/>
</g>
<path d="M95.0669 92.5001C94.9088 93.4389 94.5485 94.2575 94.0618 94.9654C94.0555 94.6051 93.4771 94.3017 93.2748 93.9446C93.3696 94.3302 93.534 94.9876 93.4075 95.7746C92.7817 96.4478 92.0453 96.9977 91.2994 97.4434C91.3405 96.8903 90.8569 96.4478 90.7463 96.0685C90.7558 96.4415 90.7716 97.1147 90.5155 97.8732C88.6128 98.8341 86.8492 99.1691 86.8492 99.1691C86.7101 98.0028 86.7196 96.9725 86.846 96.0685C87.2253 95.8504 88.0724 95.3763 88.6761 95.095C88.6761 95.095 87.7595 95.0445 87.0325 95.114C87.317 93.9793 87.8037 93.0691 88.3948 92.339C88.8689 92.241 89.5199 92.1999 90.2659 92.3958C90.2659 92.3958 89.5705 92.0387 88.9131 91.77C91.3152 89.4059 94.8678 89.3743 94.8678 89.3743C95.1807 90.5405 95.2249 91.5772 95.0732 92.4938L95.0669 92.5001Z" fill="#5DA625"/>
<g style="mix-blend-mode:multiply" opacity="0.2">
<path d="M95.0669 92.5002C94.9088 93.4389 94.5485 94.2575 94.0618 94.9655C94.0555 94.6052 93.4771 94.3018 93.2748 93.9446C93.3696 94.3302 93.534 94.9876 93.4075 95.7746C92.7817 96.4479 92.0453 96.9978 91.2994 97.4435C91.3405 96.8904 90.8569 96.4479 90.7463 96.0686C90.7558 96.4415 90.7716 97.1148 90.5155 97.8733C88.6128 98.8341 86.8492 99.1692 86.8492 99.1692C86.7101 98.0029 86.7196 96.9725 86.846 96.0686C90.1458 96.6438 95.0669 92.4939 95.0669 92.4939C95.0669 92.4939 95.0669 92.4939 95.0669 92.4971V92.5002Z" fill="#BACC3A"/>
</g>
<path d="M94.8614 89.3774C93.5181 90.2182 90.8569 93.0754 87.0356 98.7582C87.0356 98.7582 91.4511 93.1228 94.8614 89.3774Z" fill="#1FF16D"/>
<path d="M105.652 97.38C105.652 97.38 103.945 97.5033 101.885 97.0134C101.379 96.2928 101.145 95.5848 101.022 95.1929C101.056 95.6164 100.785 96.2074 101.022 96.7732C100.187 96.5077 99.3245 96.1316 98.5153 95.6006C98.1139 94.8136 98.0223 94.0835 97.9686 93.6568C97.9148 94.0803 97.5071 94.5513 97.6335 94.9305C96.2555 93.7326 95.1682 91.9532 94.8774 89.3235C94.8774 89.3235 98.0823 88.4038 101.104 90.2212C100.623 90.6637 100.146 91.201 100.118 91.2326C100.715 90.8312 101.316 90.6984 101.777 90.6731C102.444 91.1788 103.092 91.8331 103.674 92.6802C103.787 92.8445 103.901 93.0183 104.012 93.1985C103.332 93.3218 102.523 93.6189 102.523 93.6189C103.171 93.7516 104.103 94.0171 104.524 94.1435C104.966 95.0538 105.349 96.1221 105.649 97.3769L105.652 97.38Z" fill="#93E634"/>
<g style="mix-blend-mode:multiply" opacity="0.2">
<path d="M105.652 97.38C105.652 97.38 103.945 97.5032 101.885 97.0133C101.379 96.2927 101.145 95.5847 101.022 95.1928C101.056 95.6163 100.785 96.2074 101.022 96.7731C100.187 96.5076 99.3245 96.1315 98.5153 95.6005C98.1139 94.8135 98.0223 94.0834 97.9686 93.6567C97.9148 94.0803 97.5071 94.5512 97.6335 94.9305C96.2555 93.7326 95.1682 91.9531 94.8774 89.3235C98.5343 94.8578 102.213 93.5429 103.674 92.6801C103.787 92.8444 103.901 93.0183 104.012 93.1984C103.332 93.3217 102.523 93.6188 102.523 93.6188C103.171 93.7515 104.103 94.017 104.524 94.1435C104.966 95.0537 105.349 96.122 105.649 97.3768L105.652 97.38Z" fill="#93E634"/>
</g>
<path d="M94.8774 89.3235C96.3914 89.8387 99.827 92.1017 105.33 96.9944C105.33 96.9944 99.3055 92.3071 94.8774 89.3235Z" fill="#AAE619"/>
<path d="M2.55484 143C2.55484 143 -13.3337 132.34 -9.27229 104.924C-9.23436 104.662 -9.35763 104.406 -9.58835 104.276C-9.93602 104.083 -10.3722 104.251 -10.4955 104.63C-11.5922 107.962 -15.3218 122.709 -4.13624 144.085L2.558 143H2.55484Z" fill="#FA8005"/>
<path d="M-9.97949 104.428C-7.79549 104.058 -5.30806 104.248 -3.26945 105.433C-2.66576 105.105 -1.79027 104.817 -0.990623 104.558C-0.788342 104.495 -0.592382 104.431 -0.405904 104.371C-0.554454 104.485 -0.696682 104.596 -0.829429 104.706C-1.5469 105.291 -2.07788 105.828 -2.28965 106.05C-1.88509 106.325 -1.50265 106.609 -1.14549 106.887C-0.721968 106.723 -0.121447 106.517 0.428506 106.369C0.937369 106.233 1.40831 106.151 1.658 106.204C1.31665 106.369 0.968978 106.59 0.652914 106.814C0.232548 107.108 -0.127766 107.406 -0.320565 107.57C0.731929 108.483 1.37986 109.213 1.37986 109.213L3.57335 109.024C0.763533 96.5771 -9.79301 104.299 -9.97001 104.428H-9.97949Z" fill="#93E634"/>
<g style="mix-blend-mode:multiply" opacity="0.2">
<path d="M-0.330566 107.567C0.721928 108.48 1.36986 109.21 1.36986 109.21C1.36986 109.21 1.24027 108.088 0.642913 106.811C0.222547 107.105 -0.137767 107.402 -0.330566 107.567Z" fill="#93E634"/>
</g>
<g style="mix-blend-mode:multiply" opacity="0.2">
<path d="M-2.29639 106.046C-1.89182 106.321 -1.50939 106.606 -1.15224 106.884C-0.728709 106.72 -0.128183 106.514 0.421769 106.366C0.112026 105.794 -0.298861 105.209 -0.833009 104.703C-1.55048 105.288 -2.08146 105.825 -2.29323 106.046H-2.29639Z" fill="#93E634"/>
</g>
<path d="M-2.90008 99.0866C-2.80842 98.9507 -2.71992 98.818 -2.63458 98.6916C-2.66935 98.8211 -2.70096 98.9476 -2.7294 99.0708C-2.96013 100.038 -3.05495 100.85 -3.08656 101.176C-2.59982 101.141 -2.12256 101.132 -1.67375 101.132C-1.38929 100.657 -0.943638 99.9685 -0.532755 99.4691C-0.292545 99.1783 -0.0649796 98.9476 0.108856 98.8622C-0.0112486 99.1056 -0.112391 99.3711 -0.20405 99.6398C-0.409492 100.247 -0.545399 100.853 -0.608612 101.157C0.782072 101.226 1.74607 101.4 1.74607 101.4L3.35484 99.8989C-6.62015 91.7666 -10.1411 104.64 -10.1411 104.64C-8.64929 103.003 -6.57591 101.618 -4.24019 101.293C-3.95573 100.629 -3.40262 99.8104 -2.90956 99.0866H-2.90008Z" fill="#5DA625"/>
<g style="mix-blend-mode:multiply" opacity="0.2">
<path d="M-0.194068 99.6396C-0.39951 100.246 -0.53542 100.853 -0.598633 101.157C0.792051 101.226 1.75605 101.4 1.75605 101.4C1.12076 100.585 0.466506 100.009 -0.194068 99.6365V99.6396Z" fill="#BACC3A"/>
</g>
<path d="M74.6138 133.598C74.6138 133.598 87.0161 124.568 82.9168 102.725C82.8789 102.516 82.9705 102.308 83.1507 102.197C83.4225 102.033 83.7796 102.153 83.8903 102.453C84.8732 105.089 88.3152 116.79 80.009 134.262L74.6138 133.598Z" fill="#FA8005"/>
<path d="M79.8673 127.156C79.8673 127.156 80.2118 127.814 81.7921 128.016C81.7921 128.016 80.6859 128.395 79.3584 128.023L79.8673 127.156Z" fill="white"/>
<path d="M83.0275 126.714C83.0275 126.714 82.0888 126.98 81.2417 126.398C81.2417 126.398 81.4629 127.296 82.8378 127.292L83.0275 126.714Z" fill="white"/>
<path d="M81.2297 124.385C81.2297 124.385 81.6911 124.957 82.81 125.2C82.81 125.2 81.8713 125.412 80.9863 124.941L81.2297 124.385Z" fill="white"/>
<path d="M84.0739 123.06C84.0739 123.06 83.053 123.345 82.6011 123.127C82.6011 123.127 83.4576 123.711 83.9412 123.588L84.0739 123.06Z" fill="white"/>
<path d="M82.5218 120.671C82.5218 120.671 83.135 121.221 83.8398 121.094C83.8398 121.094 83.4163 121.569 82.3638 121.221L82.5218 120.671Z" fill="white"/>
<path d="M84.8987 119.002C84.8987 119.002 84.2729 119.369 83.4385 119.201C83.4385 119.201 83.8873 119.622 84.8228 119.464L84.8987 119.005V119.002Z" fill="white"/>
<path d="M83.2523 117.375C83.2523 117.375 83.9287 117.586 84.5577 117.4C84.5577 117.4 84.3206 117.792 83.167 117.77L83.2523 117.375Z" fill="white"/>
<path d="M85.2716 116C85.2716 116 84.7153 116.218 84.1274 116.11C84.1274 116.11 84.6205 116.527 85.24 116.363L85.2748 116H85.2716Z" fill="white"/>
<path d="M83.6758 113.648C83.6758 113.648 84.5829 113.92 85.0064 113.56C85.0064 113.56 84.9274 114.271 83.6694 114.106L83.6789 113.651L83.6758 113.648Z" fill="white"/>
<path d="M85.4209 111.395C85.4209 111.395 85.1586 111.79 84.3716 111.919C84.3716 111.919 85.0574 112.219 85.4114 111.938L85.4209 111.395Z" fill="white"/>
<path d="M83.7266 109.934C83.7266 109.934 84.1185 109.944 84.9402 109.359C84.9402 109.359 84.2354 110.424 83.7392 110.472L83.7266 109.934Z" fill="white"/>
<path d="M85.0567 107.197C85.0567 107.197 84.4783 107.722 83.9473 107.712C83.9473 107.712 84.4561 107.87 85.1199 107.621L85.0598 107.2L85.0567 107.197Z" fill="white"/>
<path d="M83.3789 105.642C83.3789 105.642 84.1122 105.62 84.4219 105.095C84.4219 105.095 84.5863 105.531 83.4453 106.195L83.3789 105.642Z" fill="white"/>
<path d="M84.1913 103.335C84.1913 103.335 83.9638 104.017 83.4106 104.065C83.4106 104.065 84.0364 104.302 84.3399 103.825L84.1945 103.335H84.1913Z" fill="white"/>
<path d="M83.4705 102.304C81.71 102.074 79.7219 102.304 78.1258 103.316C77.6328 103.072 76.9216 102.867 76.2737 102.684C76.1093 102.639 75.9513 102.595 75.7996 102.551C75.9228 102.636 76.0398 102.722 76.1504 102.807C76.7415 103.253 77.1871 103.667 77.3641 103.837C77.048 104.071 76.7509 104.308 76.4728 104.542C76.1283 104.425 75.6415 104.277 75.1959 104.175C74.7819 104.081 74.4057 104.03 74.2066 104.081C74.4848 104.201 74.7724 104.368 75.0315 104.539C75.3761 104.76 75.6763 104.988 75.8375 105.114C75.0221 105.879 74.5258 106.486 74.5258 106.486L72.7622 106.401C74.6301 96.3403 83.3282 102.203 83.4736 102.301L83.4705 102.304Z" fill="#93E634"/>
<g style="mix-blend-mode:multiply" opacity="0.2">
<path d="M75.8351 105.117C75.0197 105.882 74.5234 106.489 74.5234 106.489C74.5234 106.489 74.593 105.585 75.0323 104.542C75.3768 104.763 75.6771 104.991 75.8383 105.117H75.8351Z" fill="#93E634"/>
</g>
<g style="mix-blend-mode:multiply" opacity="0.2">
<path d="M77.3616 103.837C77.0455 104.071 76.7484 104.308 76.4703 104.542C76.1257 104.425 75.639 104.277 75.1934 104.176C75.4241 103.708 75.7338 103.227 76.1479 102.804C76.7389 103.25 77.1846 103.664 77.3616 103.834V103.837Z" fill="#93E634"/>
</g>
<g style="mix-blend-mode:multiply" opacity="0.2">
<path d="M83.4712 102.305C81.7107 102.074 79.7227 102.305 78.1266 103.316C77.6335 103.073 76.9223 102.867 76.2744 102.684C77.545 101.473 79.729 100.794 83.468 102.301L83.4712 102.305Z" fill="#93E634"/>
</g>
<path d="M90.7689 93.5305L90.3075 95.2372C90.3075 95.2372 89.5774 95.5248 88.6007 96.0653C88.4964 95.7809 88.2783 95.1519 88.1677 94.5419C88.1456 94.425 88.1298 94.308 88.1172 94.1974C88.0539 94.2954 88.0065 94.4597 87.9686 94.6588C87.8706 95.193 87.8517 95.9863 87.8611 96.4983C87.5546 96.688 87.2353 96.8997 86.9161 97.1273C86.8181 96.9313 86.6064 96.4794 86.3883 95.8883C86.3156 95.6892 86.2397 95.4711 86.1702 95.2436C86.1607 95.5249 86.1449 95.8314 86.1386 96.1443C86.1196 96.6974 86.1196 97.2569 86.1828 97.6931C84.7289 98.9036 83.904 100.724 83.5816 102.469C83.5816 102.469 80.5316 92.2093 90.7658 93.5273L90.7689 93.5305Z" fill="#93E634"/>
<g style="mix-blend-mode:multiply" opacity="0.2">
<path d="M86.1857 97.693C84.7318 98.9035 83.9069 100.724 83.5845 102.469C83.7962 99.4883 84.8772 97.4844 86.1414 96.1443C86.1225 96.6974 86.1225 97.2568 86.1857 97.693Z" fill="#93E634"/>
</g>
<g style="mix-blend-mode:multiply" opacity="0.2">
<path d="M87.861 96.4982C87.5545 96.6878 87.2352 96.8996 86.916 97.1272C86.818 96.9312 86.6063 96.4792 86.3882 95.8882C86.9097 95.3793 87.4502 94.9779 87.9685 94.6587C87.8705 95.1928 87.8516 95.9862 87.861 96.4982Z" fill="#93E634"/>
</g>
<g style="mix-blend-mode:multiply" opacity="0.2">
<path d="M90.7692 93.5303L90.3077 95.237C90.3077 95.237 89.5776 95.5246 88.601 96.0651C88.4967 95.7806 88.2786 95.1517 88.168 94.5417C89.5808 93.7199 90.7692 93.5303 90.7692 93.5303Z" fill="#93E634"/>
</g>
<path d="M77.6327 98.2428C77.5537 98.1385 77.4778 98.0342 77.4083 97.9331C77.4399 98.0342 77.4684 98.1354 77.4937 98.2365C77.7086 99.0046 77.8097 99.6525 77.8445 99.9117C77.4526 99.899 77.0701 99.9053 76.7098 99.918C76.4664 99.545 76.0872 99.0077 75.7427 98.6221C75.5404 98.3945 75.3539 98.2207 75.2085 98.1575C75.3097 98.3471 75.4013 98.5589 75.4835 98.7707C75.6668 99.2511 75.7964 99.7315 75.8533 99.9749C74.7407 100.073 73.9727 100.244 73.9727 100.244L72.6357 99.0899C80.3762 92.2661 83.5969 102.472 83.5969 102.472C82.3516 101.204 80.648 100.158 78.7642 99.9717C78.5145 99.447 78.0468 98.8118 77.6296 98.2428H77.6327Z" fill="#5DA625"/>
<g style="mix-blend-mode:multiply" opacity="0.2">
<path d="M75.481 98.7676C75.6643 99.248 75.7939 99.7284 75.8508 99.9718C74.7383 100.07 73.9702 100.24 73.9702 100.24C74.4538 99.5672 74.9627 99.0868 75.4778 98.7676H75.481Z" fill="#BACC3A"/>
</g>
<g style="mix-blend-mode:multiply" opacity="0.2">
<path d="M77.4937 98.2334C77.7086 99.0014 77.8097 99.6494 77.8445 99.9085C77.4526 99.8959 77.0701 99.9022 76.7098 99.9149C76.4665 99.5419 76.0872 99.0046 75.7427 98.619C76.3211 98.3219 76.909 98.2081 77.4937 98.2334Z" fill="#BACC3A"/>
</g>
<g style="mix-blend-mode:multiply" opacity="0.2">
<path d="M83.5967 102.469C82.3514 101.201 80.6478 100.155 78.7641 99.9686C78.5144 99.444 78.0466 98.8087 77.6294 98.2397C80.7268 98.48 83.5935 102.469 83.5935 102.469H83.5967Z" fill="#BACC3A"/>
</g>
<path d="M94.647 99.7695L93.2342 100.828C93.2342 100.828 92.482 100.604 91.3789 100.427C91.4895 100.082 91.7772 99.2543 92.1501 98.657C91.7487 98.8023 90.9522 99.7505 90.5287 100.31C90.1684 100.269 89.7891 100.237 89.3972 100.221C89.4572 99.9339 89.6374 99.1563 89.9724 98.2808C89.4699 98.8814 88.8125 99.6178 88.4743 100.215C86.5842 100.272 84.8111 101.195 83.4805 102.371C83.4805 102.371 87.4123 92.4147 94.6502 99.7663L94.647 99.7695Z" fill="#5DA625"/>
<path d="M94.6465 99.7696L93.2337 100.828C93.2337 100.828 92.4815 100.604 91.3784 100.427C91.4669 100.152 91.6692 99.5642 91.9379 99.0332C92.0042 98.9004 92.0738 98.774 92.1496 98.657C92.0232 98.7045 91.8557 98.8309 91.6724 99.0016C91.2805 99.365 90.819 99.9308 90.5314 100.31C90.1711 100.269 89.7918 100.237 89.3999 100.222C89.4441 100.013 89.5516 99.5452 89.7349 98.9699C89.8044 98.7519 89.8835 98.5211 89.9783 98.2809C89.7886 98.5085 89.5737 98.755 89.3651 99.0079C89.0206 99.4188 88.6887 99.8454 88.477 100.215C86.5869 100.272 84.8138 101.192 83.48 102.368C83.48 102.368 87.4118 92.4148 94.6497 99.7633L94.6465 99.7696Z" fill="#489F1D"/>
<g style="mix-blend-mode:multiply" opacity="0.2">
<path d="M89.3588 99.008C89.0142 99.4189 88.6824 99.8456 88.4706 100.215C86.5805 100.272 84.8074 101.192 83.4736 102.368C85.3131 100.117 87.4466 99.2419 89.3556 99.0049L89.3588 99.008Z" fill="#489F1D"/>
</g>
<g style="mix-blend-mode:multiply" opacity="0.2">
<path d="M91.6724 99.0014C91.2805 99.3649 90.819 99.9307 90.5314 100.31C90.1711 100.269 89.7918 100.237 89.3999 100.221C89.4442 100.013 89.5516 99.5451 89.7349 98.9698C90.4271 98.9129 91.0814 98.9351 91.6756 99.0014H91.6724Z" fill="#489F1D"/>
</g>
<g style="mix-blend-mode:multiply" opacity="0.2">
<path d="M94.6465 99.7696L93.2337 100.828C93.2337 100.828 92.4815 100.604 91.3784 100.427C91.4669 100.152 91.6692 99.5642 91.9378 99.0332C93.5213 99.2481 94.6054 99.7475 94.6465 99.7665V99.7696Z" fill="#489F1D"/>
</g>
<path d="M83.714 104.305C83.6287 104.982 83.3916 105.579 83.0629 106.097C83.0471 105.838 82.6267 105.639 82.4719 105.389C82.5509 105.661 82.6868 106.129 82.6173 106.695C82.1874 107.194 81.6754 107.608 81.1539 107.949C81.1665 107.551 80.8094 107.248 80.7209 106.982C80.7367 107.248 80.7683 107.731 80.6039 108.281C79.2701 109.021 78.0154 109.312 78.0154 109.312C77.8826 108.48 77.8605 107.744 77.9269 107.093C78.1924 106.925 78.7834 106.562 79.2101 106.347C79.2101 106.347 78.5527 106.337 78.0343 106.407C78.2082 105.585 78.5305 104.922 78.932 104.384C79.2701 104.302 79.7316 104.255 80.2721 104.372C80.2721 104.372 79.7664 104.135 79.2859 103.961C80.9421 102.203 83.4833 102.083 83.4833 102.083C83.7393 102.908 83.7993 103.651 83.714 104.312V104.305Z" fill="#5DA625"/>
<g style="mix-blend-mode:multiply" opacity="0.2">
<path d="M83.714 104.305C83.6287 104.982 83.3916 105.579 83.0629 106.097C83.0471 105.838 82.6267 105.639 82.4719 105.389C82.5509 105.661 82.6868 106.129 82.6173 106.695C82.1874 107.194 81.6754 107.608 81.1539 107.949C81.1665 107.551 80.8094 107.248 80.7209 106.982C80.7367 107.248 80.7683 107.731 80.6039 108.281C79.2701 109.021 78.0154 109.312 78.0154 109.312C77.8826 108.48 77.8605 107.744 77.9269 107.093C80.3037 107.415 83.714 104.308 83.714 104.308V104.305Z" fill="#BACC3A"/>
</g>
<path d="M83.4836 102.077C82.5449 102.715 80.718 104.836 78.1421 109.005C78.1421 109.005 81.1479 104.849 83.4836 102.077Z" fill="#1FF16D"/>
<path d="M91.4264 107.507C91.4264 107.507 90.2063 107.643 88.7177 107.346C88.3352 106.843 88.1488 106.344 88.0476 106.066C88.0856 106.369 87.9054 106.799 88.0919 107.197C87.485 107.03 86.8592 106.786 86.265 106.426C85.9584 105.873 85.8699 105.351 85.8194 105.051C85.7941 105.355 85.5128 105.705 85.6139 105.974C84.5962 105.152 83.7681 103.91 83.4868 102.036C83.4868 102.036 85.7562 101.29 87.9686 102.507C87.6367 102.835 87.3112 103.234 87.2891 103.259C87.7063 102.956 88.1298 102.845 88.4617 102.813C88.9516 103.158 89.4351 103.607 89.8745 104.198C89.9598 104.311 90.0483 104.435 90.1305 104.561C89.6469 104.669 89.078 104.903 89.078 104.903C89.5458 104.978 90.219 105.146 90.5256 105.222C90.8669 105.86 91.1703 106.616 91.42 107.507H91.4264Z" fill="#93E634"/>
<g style="mix-blend-mode:multiply" opacity="0.2">
<path d="M91.4264 107.507C91.4264 107.507 90.2063 107.643 88.7177 107.346C88.3352 106.843 88.1488 106.344 88.0476 106.066C88.0856 106.369 87.9054 106.799 88.0919 107.197C87.485 107.03 86.8592 106.786 86.265 106.426C85.9584 105.873 85.8699 105.351 85.8194 105.051C85.7941 105.355 85.5128 105.705 85.6139 105.974C84.5962 105.152 83.7681 103.91 83.4868 102.036C86.2555 105.898 88.8536 104.855 89.8776 104.198C89.963 104.312 90.0515 104.435 90.1337 104.561C89.6501 104.669 89.0812 104.903 89.0812 104.903C89.5489 104.978 90.2221 105.146 90.5287 105.222C90.8701 105.86 91.1735 106.616 91.4232 107.507H91.4264Z" fill="#93E634"/>
</g>
<path d="M83.4897 102.039C84.5865 102.365 87.1087 103.891 91.1828 107.245C91.1828 107.245 86.742 104.056 83.4897 102.039Z" fill="#AAE619"/>
<path d="M28.0617 10.1304H23.6084V21.24H28.0617V10.1304Z" fill="#057C13"/>
<path d="M25.1794 10.1304H20.7261V21.24H25.1794V10.1304Z" fill="#2FAC3E"/>
<path d="M28.8677 9.71948H19.9199V11.2998H28.8677V9.71948Z" fill="#FFF3F3"/>
<path d="M28.8679 9.71948H25.6377V11.2998H28.8679V9.71948Z" fill="#057C13"/>
<path d="M68.3444 14.8872H9.43945V15.238H68.3444V14.8872Z" fill="#FFF3F3"/>
<path d="M68.3444 15.8828H9.43945V16.2336H68.3444V15.8828Z" fill="#FFF3F3"/>
<path d="M9.43945 14.887V20.4656H9.79028V14.887H9.43945Z" fill="#FFF3F3"/>
<path d="M15.5806 14.887V20.4656H15.9314V14.887H15.5806Z" fill="#FFF3F3"/>
<path d="M21.7217 14.887V20.4656H22.0725V14.887H21.7217Z" fill="#FFF3F3"/>
<path d="M27.8594 14.8839V20.4624H28.2102V14.8839H27.8594Z" fill="#FFF3F3"/>
<path d="M34.0005 14.887V20.4656H34.3513V14.887H34.0005Z" fill="#FFF3F3"/>
<path d="M40.1416 14.887V20.4656H40.4924V14.887H40.1416Z" fill="#FFF3F3"/>
<path d="M46.2827 14.887V20.4656H46.6335V14.887H46.2827Z" fill="#FFF3F3"/>
<path d="M52.4214 14.887V20.4656H52.7722V14.887H52.4214Z" fill="#057C13"/>
<path d="M57.1299 14.887V20.4656H57.4807V14.887H57.1299Z" fill="#057C13"/>
<path d="M61.8364 14.8839V20.4624H62.1873V14.8839H61.8364Z" fill="#057C13"/>
<path d="M67.9932 14.887V20.4656H68.344V14.887H67.9932Z" fill="#057C13"/>
<path d="M68.3443 14.887H52.4272V15.2378H68.3443V14.887Z" fill="#057C13"/>
<path d="M68.3443 15.8826H52.4272V16.2334H68.3443V15.8826Z" fill="#057C13"/>
<path d="M69.7226 86.0522H22.5278V138.402H69.7226V86.0522Z" fill="#2FAC3E"/>
<path d="M49.4751 86.0522H7.81152V138.402H49.4751V86.0522Z" fill="#2FAC3E"/>
<g style="mix-blend-mode:multiply" opacity="0.4">
<path d="M69.7254 103.455H7.81152V107.254H69.7254V103.455Z" fill="#FFC6CC"/>
</g>
<path d="M17.8872 111.167H8.69922V138.405H17.8872V111.167Z" fill="#FEA2A5"/>
<path d="M9.11084 111.577V117.737V117.772V138.405H17.8879V117.772V117.737V111.577H9.11084Z" fill="#091E53"/>
<mask id="mask0_80_6248" style="mask-type:luminance" maskUnits="userSpaceOnUse" x="9" y="111" width="9" height="28">
<path d="M9.11133 111.577V117.737V117.772V138.405H17.8884V117.772V117.737V111.577H9.11133Z" fill="white"/>
</mask>
<g mask="url(#mask0_80_6248)">
<g opacity="0.5">
<path style="mix-blend-mode:soft-light" d="M0.888178 113.12L-2.31445 116.323L22.169 140.806L25.3717 137.604L0.888178 113.12Z" fill="url(#paint6_linear_80_6248)"/>
<path style="mix-blend-mode:soft-light" d="M2.99202 111.012L1.82764 112.176L26.3111 136.659L27.4755 135.495L2.99202 111.012Z" fill="url(#paint7_linear_80_6248)"/>
<path style="mix-blend-mode:soft-light" d="M4.82862 109.174L4.26318 109.74L28.7467 134.223L29.3121 133.658L4.82862 109.174Z" fill="url(#paint8_linear_80_6248)"/>
</g>
</g>
<path d="M17.8848 111.577H9.11084V112.077H17.8848V111.577Z" fill="#FFF3F3"/>
<path d="M17.8853 117.165H9.11133V117.377H17.8853V117.165Z" fill="#FFF3F3"/>
<path d="M17.8848 123.012H9.11084V123.224H17.8848V123.012Z" fill="#FFF3F3"/>
<path d="M17.8848 128.863H9.11084V129.075H17.8848V128.863Z" fill="#FFF3F3"/>
<path d="M13.4092 111.577L13.4092 138.405H13.5925L13.5925 111.577H13.4092Z" fill="#FFF3F3"/>
<path d="M48.5903 111.167H39.4023V138.405H48.5903V111.167Z" fill="#2FAC3E"/>
<path d="M39.8135 111.577V117.737V117.772V138.405H48.5874V117.772V117.737V111.577H39.8135Z" fill="#091E53"/>
<mask id="mask1_80_6248" style="mask-type:luminance" maskUnits="userSpaceOnUse" x="39" y="111" width="10" height="28">
<path d="M39.8135 111.577V117.737V117.772V138.405H48.5874V117.772V117.737V111.577H39.8135Z" fill="white"/>
</mask>
<g mask="url(#mask1_80_6248)">
<g opacity="0.5">
<path style="mix-blend-mode:soft-light" d="M31.5903 113.118L28.3877 116.32L52.8712 140.804L56.0738 137.601L31.5903 113.118Z" fill="url(#paint9_linear_80_6248)"/>
<path style="mix-blend-mode:soft-light" d="M33.6937 111.012L32.5293 112.177L57.0128 136.66L58.1772 135.496L33.6937 111.012Z" fill="url(#paint10_linear_80_6248)"/>
<path style="mix-blend-mode:soft-light" d="M35.5308 109.175L34.9653 109.74L59.4488 134.224L60.0142 133.658L35.5308 109.175Z" fill="url(#paint11_linear_80_6248)"/>
</g>
</g>
<path d="M48.5874 111.577H39.8135V112.077H48.5874V111.577Z" fill="#FFF3F3"/>
<path d="M48.5874 117.165H39.8135V117.377H48.5874V117.165Z" fill="#FFF3F3"/>
<path d="M48.5874 123.012H39.8135V123.224H48.5874V123.012Z" fill="#FFF3F3"/>
<path d="M48.5874 128.863H39.8135V129.075H48.5874V128.863Z" fill="#FFF3F3"/>
<path d="M44.1084 111.577V138.405H44.2917V111.577H44.1084Z" fill="#FFF3F3"/>
<path d="M69.7248 18.8411H26.4082V104.795H69.7248V18.8411Z" fill="#2FAC3E"/>
<path d="M49.4751 18.8411H7.81152V104.795H49.4751V18.8411Z" fill="#2FAC3E"/>
<path d="M19.8439 82.4111H9.81836V94.1055H19.8439V82.4111Z" fill="#2FAC3E"/>
<path d="M19.8442 83.0908H10.4033V94.1057H19.8442V83.0908Z" fill="#FFF3F3"/>
<path d="M19.4267 83.5806H10.8203V93.6188H19.4267V83.5806Z" fill="#091E53"/>
<mask id="mask2_80_6248" style="mask-type:luminance" maskUnits="userSpaceOnUse" x="10" y="83" width="10" height="11">
<path d="M19.4267 83.5806H10.8203V93.6188H19.4267V83.5806Z" fill="white"/>
</mask>
<g mask="url(#mask2_80_6248)">
<g opacity="0.5">
<path style="mix-blend-mode:soft-light" d="M9.94304 83.7259L8.62891 85.04L18.6838 95.0949L19.9979 93.7808L9.94304 83.7259Z" fill="url(#paint12_linear_80_6248)"/>
<path style="mix-blend-mode:soft-light" d="M10.8083 82.8601L10.3301 83.3384L20.385 93.3933L20.8632 92.915L10.8083 82.8601Z" fill="url(#paint13_linear_80_6248)"/>
<path style="mix-blend-mode:soft-light" d="M11.564 82.104L11.3315 82.3364L21.3864 92.3913L21.6189 92.1589L11.564 82.104Z" fill="url(#paint14_linear_80_6248)"/>
</g>
</g>
<path d="M15.2862 83.5806H14.9575V93.6188H15.2862V83.5806Z" fill="#FFF3F3"/>
<path d="M10.9848 83.5806H10.7983V93.6188H10.9848V83.5806Z" fill="#2FAC3E"/>
<path d="M15.4599 83.5806H15.2734V93.6188H15.4599V83.5806Z" fill="#2FAC3E"/>
<path d="M33.6559 82.4111H23.6304V94.1055H33.6559V82.4111Z" fill="#2FAC3E"/>
<path d="M33.6557 83.0908H24.2148V94.1057H33.6557V83.0908Z" fill="#FFF3F3"/>
<path d="M33.2356 83.5806H24.6323V93.6188H33.2356V83.5806Z" fill="#091E53"/>
<mask id="mask3_80_6248" style="mask-type:luminance" maskUnits="userSpaceOnUse" x="24" y="83" width="10" height="11">
<path d="M33.2351 83.5806H24.6318V93.6188H33.2351V83.5806Z" fill="white"/>
</mask>
<g mask="url(#mask3_80_6248)">
<g opacity="0.5">
<path style="mix-blend-mode:soft-light" d="M23.755 83.7257L22.4409 85.0398L32.4958 95.0947L33.8099 93.7805L23.755 83.7257Z" fill="url(#paint15_linear_80_6248)"/>
<path style="mix-blend-mode:soft-light" d="M24.6204 82.8662L24.1421 83.3445L34.197 93.3994L34.6752 92.9211L24.6204 82.8662Z" fill="url(#paint16_linear_80_6248)"/>
<path style="mix-blend-mode:soft-light" d="M25.376 82.1037L25.1436 82.3362L35.1984 92.3911L35.4309 92.1586L25.376 82.1037Z" fill="url(#paint17_linear_80_6248)"/>
</g>
</g>
<path d="M29.1017 83.5806H28.7729V93.6188H29.1017V83.5806Z" fill="#FFF3F3"/>
<path d="M24.7963 83.5806H24.6099V93.6188H24.7963V83.5806Z" fill="#2FAC3E"/>
<path d="M29.2724 83.5806H29.0859V93.6188H29.2724V83.5806Z" fill="#2FAC3E"/>
<path d="M47.4679 82.4111H37.4424V94.1055H47.4679V82.4111Z" fill="#2FAC3E"/>
<path d="M47.4682 83.0908H38.0273V94.1057H47.4682V83.0908Z" fill="#FFF3F3"/>
<path d="M47.0508 83.5806H38.4443V93.6188H47.0508V83.5806Z" fill="#091E53"/>
<mask id="mask4_80_6248" style="mask-type:luminance" maskUnits="userSpaceOnUse" x="38" y="83" width="10" height="11">
<path d="M47.0508 83.5806H38.4443V93.6188H47.0508V83.5806Z" fill="white"/>
</mask>
<g mask="url(#mask4_80_6248)">
<g opacity="0.5">
<path style="mix-blend-mode:soft-light" d="M37.568 83.7257L36.2539 85.0398L46.3088 95.0947L47.6229 93.7805L37.568 83.7257Z" fill="url(#paint18_linear_80_6248)"/>
<path style="mix-blend-mode:soft-light" d="M38.4358 82.8608L37.9575 83.3391L48.0124 93.394L48.4907 92.9157L38.4358 82.8608Z" fill="url(#paint19_linear_80_6248)"/>
<path style="mix-blend-mode:soft-light" d="M39.189 82.113L38.9565 82.3455L49.0114 92.4003L49.2439 92.1679L39.189 82.113Z" fill="url(#paint20_linear_80_6248)"/>
</g>
</g>
<path d="M42.9132 83.5806H42.5845V93.6188H42.9132V83.5806Z" fill="#FFF3F3"/>
<path d="M38.6088 83.5806H38.4224V93.6188H38.6088V83.5806Z" fill="#2FAC3E"/>
<path d="M43.0874 83.5806H42.9009V93.6188H43.0874V83.5806Z" fill="#2FAC3E"/>
<path d="M51.192 94.1057H56.1353V82.4113H51.192V94.1057Z" fill="#2FAC3E"/>
<path d="M51.1923 94.1089H55.5508V83.094H51.1923V94.1089Z" fill="#FFDEE3"/>
<path d="M51.6123 93.6189H55.1333V83.5807H51.6123V93.6189Z" fill="#011230"/>
<mask id="mask5_80_6248" style="mask-type:luminance" maskUnits="userSpaceOnUse" x="51" y="83" width="5" height="11">
<path d="M51.6123 93.6189H55.1333V83.5807H51.6123V93.6189Z" fill="white"/>
</mask>
<g mask="url(#mask5_80_6248)">
<g opacity="0.5">
<path style="mix-blend-mode:soft-light" d="M48.3298 83.7269L47.0156 85.041L57.0705 95.0959L58.3846 93.7818L48.3298 83.7269Z" fill="url(#paint21_linear_80_6248)"/>
<path style="mix-blend-mode:soft-light" d="M49.1951 82.8611L48.7168 83.3394L58.7717 93.3942L59.2499 92.916L49.1951 82.8611Z" fill="url(#paint22_linear_80_6248)"/>
<path style="mix-blend-mode:soft-light" d="M49.9502 82.1047L49.7178 82.3372L59.7727 92.392L60.0051 92.1596L49.9502 82.1047Z" fill="url(#paint23_linear_80_6248)"/>
</g>
</g>
<path d="M53.2079 93.6189H53.5366V83.5807H53.2079V93.6189Z" fill="#FFDEE3"/>
<path d="M54.9688 93.6189H55.1553V83.5807H54.9688V93.6189Z" fill="#2FAC3E"/>
<path d="M53.022 93.6189H53.2085V83.5807H53.022V93.6189Z" fill="#2FAC3E"/>
<path d="M57.1271 94.1055H62.0703V82.4111H57.1271V94.1055Z" fill="#2FAC3E"/>
<path d="M57.1268 94.1086H61.4854V83.0938H57.1268V94.1086Z" fill="#FFDEE3"/>
<path d="M57.5474 93.6189H61.0684V83.5807H57.5474V93.6189Z" fill="#011230"/>
<mask id="mask6_80_6248" style="mask-type:luminance" maskUnits="userSpaceOnUse" x="57" y="83" width="5" height="11">
<path d="M57.5474 93.6187H61.0684V83.5805H57.5474V93.6187Z" fill="white"/>
</mask>
<g mask="url(#mask6_80_6248)">
<g opacity="0.5">
<path style="mix-blend-mode:soft-light" d="M54.2638 83.7266L52.9497 85.0408L63.0046 95.0956L64.3187 93.7815L54.2638 83.7266Z" fill="url(#paint24_linear_80_6248)"/>
<path style="mix-blend-mode:soft-light" d="M55.1292 82.8608L54.6509 83.3391L64.7058 93.394L65.184 92.9157L55.1292 82.8608Z" fill="url(#paint25_linear_80_6248)"/>
<path style="mix-blend-mode:soft-light" d="M55.8848 82.1047L55.6523 82.3372L65.7072 92.392L65.9396 92.1596L55.8848 82.1047Z" fill="url(#paint26_linear_80_6248)"/>
</g>
</g>
<path d="M59.1435 93.6189H59.4722V83.5807H59.1435V93.6189Z" fill="#FFDEE3"/>
<path d="M60.9039 93.6189H61.0903V83.5807H60.9039V93.6189Z" fill="#2FAC3E"/>
<path d="M58.9571 93.6189H59.1436V83.5807H58.9571V93.6189Z" fill="#2FAC3E"/>
<path d="M63.0631 94.1055H68.0063V82.4111H63.0631V94.1055Z" fill="#2FAC3E"/>
<path d="M63.0629 94.1086H67.4214V83.0938H63.0629V94.1086Z" fill="#FFDEE3"/>
<path d="M63.4834 93.6187H67.0044V83.5805H63.4834V93.6187Z" fill="#011230"/>
<mask id="mask7_80_6248" style="mask-type:luminance" maskUnits="userSpaceOnUse" x="63" y="83" width="5" height="11">
<path d="M63.4834 93.6187H67.0044V83.5805H63.4834V93.6187Z" fill="white"/>
</mask>
<g mask="url(#mask7_80_6248)">
<g opacity="0.5">
<path style="mix-blend-mode:soft-light" d="M60.2004 83.7271L58.8862 85.0413L68.9411 95.0961L70.2552 93.782L60.2004 83.7271Z" fill="url(#paint27_linear_80_6248)"/>
<path style="mix-blend-mode:soft-light" d="M61.0657 82.8613L60.5874 83.3396L70.6423 93.3945L71.1206 92.9162L61.0657 82.8613Z" fill="url(#paint28_linear_80_6248)"/>
<path style="mix-blend-mode:soft-light" d="M61.8208 82.1145L61.5884 82.3469L71.6433 92.4018L71.8757 92.1694L61.8208 82.1145Z" fill="url(#paint29_linear_80_6248)"/>
</g>
</g>
<path d="M65.0795 93.6187H65.4082V83.5805H65.0795V93.6187Z" fill="#FFDEE3"/>
<path d="M66.8399 93.6187H67.0264V83.5805H66.8399V93.6187Z" fill="#2FAC3E"/>
<path d="M64.8926 93.6187H65.0791V83.5805H64.8926V93.6187Z" fill="#2FAC3E"/>
<path d="M51.192 74.8066H56.1353V63.1123H51.192V74.8066Z" fill="#2FAC3E"/>
<path d="M51.1923 74.8066H55.5508V63.7918H51.1923V74.8066Z" fill="#FFDEE3"/>
<path d="M51.6123 74.3198H55.1333V64.2816H51.6123V74.3198Z" fill="#011230"/>
<mask id="mask8_80_6248" style="mask-type:luminance" maskUnits="userSpaceOnUse" x="51" y="64" width="5" height="11">
<path d="M51.6123 74.3201H55.1333V64.2819H51.6123V74.3201Z" fill="white"/>
</mask>
<g mask="url(#mask8_80_6248)">
<g opacity="0.5">
<path style="mix-blend-mode:soft-light" d="M48.3307 64.4259L47.0166 65.74L57.0715 75.7949L58.3856 74.4807L48.3307 64.4259Z" fill="url(#paint30_linear_80_6248)"/>
<path style="mix-blend-mode:soft-light" d="M49.1965 63.5571L48.7183 64.0354L58.7731 74.0903L59.2514 73.612L49.1965 63.5571Z" fill="url(#paint31_linear_80_6248)"/>
<path style="mix-blend-mode:soft-light" d="M49.9487 62.804L49.7163 63.0364L59.7712 73.0913L60.0036 72.8588L49.9487 62.804Z" fill="url(#paint32_linear_80_6248)"/>
</g>
</g>
<path d="M53.2079 74.3198H53.5366V64.2816H53.2079V74.3198Z" fill="#FFDEE3"/>
<path d="M54.9688 74.3198H55.1553V64.2816H54.9688V74.3198Z" fill="#2FAC3E"/>
<path d="M53.022 74.3198H53.2085V64.2816H53.022V74.3198Z" fill="#2FAC3E"/>
<path d="M57.1271 74.8066H62.0703V63.1123H57.1271V74.8066Z" fill="#2FAC3E"/>
<path d="M57.1268 74.8066H61.4854V63.7918H57.1268V74.8066Z" fill="#FFDEE3"/>
<path d="M57.5474 74.3198H61.0684V64.2816H57.5474V74.3198Z" fill="#011230"/>
<mask id="mask9_80_6248" style="mask-type:luminance" maskUnits="userSpaceOnUse" x="57" y="64" width="5" height="11">
<path d="M57.5474 74.3201H61.0684V64.2819H57.5474V74.3201Z" fill="white"/>
</mask>
<g mask="url(#mask9_80_6248)">
<g opacity="0.5">
<path style="mix-blend-mode:soft-light" d="M54.2653 64.4259L52.9512 65.74L63.006 75.7949L64.3202 74.4807L54.2653 64.4259Z" fill="url(#paint33_linear_80_6248)"/>
<path style="mix-blend-mode:soft-light" d="M55.1306 63.5569L54.6523 64.0352L64.7072 74.09L65.1855 73.6118L55.1306 63.5569Z" fill="url(#paint34_linear_80_6248)"/>
<path style="mix-blend-mode:soft-light" d="M55.8828 62.804L55.6504 63.0364L65.7053 73.0913L65.9377 72.8588L55.8828 62.804Z" fill="url(#paint35_linear_80_6248)"/>
</g>
</g>
<path d="M59.1435 74.3198H59.4722V64.2816H59.1435V74.3198Z" fill="#FFDEE3"/>
<path d="M60.9039 74.3198H61.0903V64.2816H60.9039V74.3198Z" fill="#2FAC3E"/>
<path d="M58.9571 74.3198H59.1436V64.2816H58.9571V74.3198Z" fill="#2FAC3E"/>
<path d="M63.0631 74.8066H68.0063V63.1123H63.0631V74.8066Z" fill="#2FAC3E"/>
<path d="M63.0629 74.8066H67.4214V63.7918H63.0629V74.8066Z" fill="#FFDEE3"/>
<path d="M63.4834 74.3198H67.0044V64.2816H63.4834V74.3198Z" fill="#011230"/>
<mask id="mask10_80_6248" style="mask-type:luminance" maskUnits="userSpaceOnUse" x="63" y="64" width="5" height="11">
<path d="M63.4834 74.3198H67.0044V64.2816H63.4834V74.3198Z" fill="white"/>
</mask>
<g mask="url(#mask10_80_6248)">
<g opacity="0.5">
<path style="mix-blend-mode:soft-light" d="M60.2013 64.4263L58.8872 65.7405L68.9421 75.7953L70.2562 74.4812L60.2013 64.4263Z" fill="url(#paint36_linear_80_6248)"/>
<path style="mix-blend-mode:soft-light" d="M61.0667 63.5574L60.5884 64.0356L70.6433 74.0905L71.1215 73.6122L61.0667 63.5574Z" fill="url(#paint37_linear_80_6248)"/>
<path style="mix-blend-mode:soft-light" d="M61.8223 62.8137L61.5898 63.0461L71.6447 73.101L71.8772 72.8686L61.8223 62.8137Z" fill="url(#paint38_linear_80_6248)"/>
</g>
</g>
<path d="M65.0795 74.3198H65.4082V64.2816H65.0795V74.3198Z" fill="#FFDEE3"/>
<path d="M66.8399 74.3198H67.0264V64.2816H66.8399V74.3198Z" fill="#2FAC3E"/>
<path d="M64.8926 74.3198H65.0791V64.2816H64.8926V74.3198Z" fill="#2FAC3E"/>
<path d="M51.192 55.5076H56.1353V43.8132H51.192V55.5076Z" fill="#2FAC3E"/>
<path d="M51.1923 55.5076H55.5508V44.4927H51.1923V55.5076Z" fill="#FFDEE3"/>
<path d="M51.6123 55.0208H55.1333V44.9825H51.6123V55.0208Z" fill="#011230"/>
<mask id="mask11_80_6248" style="mask-type:luminance" maskUnits="userSpaceOnUse" x="51" y="44" width="5" height="12">
<path d="M51.6123 55.0208H55.1333V44.9825H51.6123V55.0208Z" fill="white"/>
</mask>
<g mask="url(#mask11_80_6248)">
<g opacity="0.5">
<path style="mix-blend-mode:soft-light" d="M48.3293 45.1283L47.0151 46.4424L57.07 56.4973L58.3841 55.1831L48.3293 45.1283Z" fill="url(#paint39_linear_80_6248)"/>
<path style="mix-blend-mode:soft-light" d="M49.1941 44.259L48.7158 44.7373L58.7707 54.7922L59.249 54.3139L49.1941 44.259Z" fill="url(#paint40_linear_80_6248)"/>
<path style="mix-blend-mode:soft-light" d="M49.9507 43.5061L49.7183 43.7385L59.7731 53.7934L60.0056 53.561L49.9507 43.5061Z" fill="url(#paint41_linear_80_6248)"/>
</g>
</g>
<path d="M53.2079 55.0208H53.5366V44.9825H53.2079V55.0208Z" fill="#FFDEE3"/>
<path d="M54.9688 55.0208H55.1553V44.9825H54.9688V55.0208Z" fill="#2FAC3E"/>
<path d="M53.022 55.0208H53.2085V44.9825H53.022V55.0208Z" fill="#2FAC3E"/>
<path d="M57.1271 55.5076H62.0703V43.8132H57.1271V55.5076Z" fill="#2FAC3E"/>
<path d="M57.1268 55.5076H61.4854V44.4927H57.1268V55.5076Z" fill="#FFDEE3"/>
<path d="M57.5474 55.0208H61.0684V44.9825H57.5474V55.0208Z" fill="#011230"/>
<mask id="mask12_80_6248" style="mask-type:luminance" maskUnits="userSpaceOnUse" x="57" y="44" width="5" height="12">
<path d="M57.5474 55.021H61.0684V44.9828H57.5474V55.021Z" fill="white"/>
</mask>
<g mask="url(#mask12_80_6248)">
<g opacity="0.5">
<path style="mix-blend-mode:soft-light" d="M54.2638 45.1283L52.9497 46.4424L63.0046 56.4973L64.3187 55.1831L54.2638 45.1283Z" fill="url(#paint42_linear_80_6248)"/>
<path style="mix-blend-mode:soft-light" d="M55.1292 44.259L54.6509 44.7373L64.7058 54.7922L65.184 54.3139L55.1292 44.259Z" fill="url(#paint43_linear_80_6248)"/>
<path style="mix-blend-mode:soft-light" d="M55.8843 43.5061L55.6519 43.7385L65.7067 53.7934L65.9392 53.561L55.8843 43.5061Z" fill="url(#paint44_linear_80_6248)"/>
</g>
</g>
<path d="M59.1435 55.0208H59.4722V44.9825H59.1435V55.0208Z" fill="#FFDEE3"/>
<path d="M60.9039 55.0208H61.0903V44.9825H60.9039V55.0208Z" fill="#2FAC3E"/>
<path d="M58.9571 55.0208H59.1436V44.9825H58.9571V55.0208Z" fill="#2FAC3E"/>
<path d="M63.0631 55.5076H68.0063V43.8132H63.0631V55.5076Z" fill="#2FAC3E"/>
<path d="M63.0629 55.5076H67.4214V44.4927H63.0629V55.5076Z" fill="#FFDEE3"/>
<path d="M63.4834 55.0208H67.0044V44.9825H63.4834V55.0208Z" fill="#011230"/>
<mask id="mask13_80_6248" style="mask-type:luminance" maskUnits="userSpaceOnUse" x="63" y="44" width="5" height="12">
<path d="M63.4834 55.0208H67.0044V44.9825H63.4834V55.0208Z" fill="white"/>
</mask>
<g mask="url(#mask13_80_6248)">
<g opacity="0.5">
<path style="mix-blend-mode:soft-light" d="M60.1999 45.1285L58.8857 46.4426L68.9406 56.4975L70.2547 55.1834L60.1999 45.1285Z" fill="url(#paint45_linear_80_6248)"/>
<path style="mix-blend-mode:soft-light" d="M61.0652 44.2595L60.5869 44.7378L70.6418 54.7927L71.1201 54.3144L61.0652 44.2595Z" fill="url(#paint46_linear_80_6248)"/>
<path style="mix-blend-mode:soft-light" d="M61.8242 43.5127L61.5918 43.7451L71.6467 53.8L71.8791 53.5676L61.8242 43.5127Z" fill="url(#paint47_linear_80_6248)"/>
</g>
</g>
<path d="M65.0795 55.0208H65.4082V44.9825H65.0795V55.0208Z" fill="#FFDEE3"/>
<path d="M66.8399 55.0208H67.0264V44.9825H66.8399V55.0208Z" fill="#2FAC3E"/>
<path d="M64.8926 55.0208H65.0791V44.9825H64.8926V55.0208Z" fill="#2FAC3E"/>
<path d="M51.192 36.2119H56.1353V24.5175H51.192V36.2119Z" fill="#2FAC3E"/>
<path d="M51.1923 36.2119H55.5508V25.1971H51.1923V36.2119Z" fill="#FFDEE3"/>
<path d="M51.6123 35.7253H55.1333V25.6871H51.6123V35.7253Z" fill="#011230"/>
<mask id="mask14_80_6248" style="mask-type:luminance" maskUnits="userSpaceOnUse" x="51" y="25" width="5" height="11">
<path d="M51.6123 35.7251H55.1333V25.6869H51.6123V35.7251Z" fill="white"/>
</mask>
<g mask="url(#mask14_80_6248)">
<g opacity="0.5">
<path style="mix-blend-mode:soft-light" d="M48.3302 25.8304L47.0161 27.1445L57.071 37.1994L58.3851 35.8853L48.3302 25.8304Z" fill="url(#paint48_linear_80_6248)"/>
<path style="mix-blend-mode:soft-light" d="M49.1926 24.9614L48.7144 25.4397L58.7692 35.4946L59.2475 35.0163L49.1926 24.9614Z" fill="url(#paint49_linear_80_6248)"/>
<path style="mix-blend-mode:soft-light" d="M49.9502 24.2107L49.7178 24.4431L59.7726 34.498L60.0051 34.2656L49.9502 24.2107Z" fill="url(#paint50_linear_80_6248)"/>
</g>
</g>
<path d="M53.2079 35.7253H53.5366V25.6871H53.2079V35.7253Z" fill="#FFDEE3"/>
<path d="M54.9688 35.7253H55.1553V25.6871H54.9688V35.7253Z" fill="#2FAC3E"/>
<path d="M53.022 35.7253H53.2085V25.6871H53.022V35.7253Z" fill="#2FAC3E"/>
<path d="M57.1271 36.2119H62.0703V24.5175H57.1271V36.2119Z" fill="#2FAC3E"/>
<path d="M57.1268 36.2119H61.4854V25.1971H57.1268V36.2119Z" fill="#FFDEE3"/>
<path d="M57.5474 35.7251H61.0684V25.6869H57.5474V35.7251Z" fill="#011230"/>
<mask id="mask15_80_6248" style="mask-type:luminance" maskUnits="userSpaceOnUse" x="57" y="25" width="5" height="11">
<path d="M57.5474 35.7251H61.0684V25.6869H57.5474V35.7251Z" fill="white"/>
</mask>
<g mask="url(#mask15_80_6248)">
<g opacity="0.5">
<path style="mix-blend-mode:soft-light" d="M54.2648 25.8306L52.9507 27.1448L63.0056 37.1996L64.3197 35.8855L54.2648 25.8306Z" fill="url(#paint51_linear_80_6248)"/>
<path style="mix-blend-mode:soft-light" d="M55.1272 24.9617L54.6489 25.4399L64.7038 35.4948L65.1821 35.0165L55.1272 24.9617Z" fill="url(#paint52_linear_80_6248)"/>
<path style="mix-blend-mode:soft-light" d="M55.8848 24.2107L55.6523 24.4431L65.7072 34.498L65.9396 34.2656L55.8848 24.2107Z" fill="url(#paint53_linear_80_6248)"/>
</g>
</g>
<path d="M59.1435 35.7251H59.4722V25.6869H59.1435V35.7251Z" fill="#FFDEE3"/>
<path d="M60.9039 35.7251H61.0903V25.6869H60.9039V35.7251Z" fill="#2FAC3E"/>
<path d="M58.9571 35.7251H59.1436V25.6869H58.9571V35.7251Z" fill="#2FAC3E"/>
<path d="M63.0631 36.2119H68.0063V24.5175H63.0631V36.2119Z" fill="#2FAC3E"/>
<path d="M63.0629 36.2119H67.4214V25.1971H63.0629V36.2119Z" fill="#FFDEE3"/>
<path d="M63.4834 35.7251H67.0044V25.6869H63.4834V35.7251Z" fill="#011230"/>
<mask id="mask16_80_6248" style="mask-type:luminance" maskUnits="userSpaceOnUse" x="63" y="25" width="5" height="11">
<path d="M63.4834 35.7253H67.0044V25.6871H63.4834V35.7253Z" fill="white"/>
</mask>
<g mask="url(#mask16_80_6248)">
<g opacity="0.5">
<path style="mix-blend-mode:soft-light" d="M60.2008 25.8306L58.8867 27.1448L68.9416 37.1996L70.2557 35.8855L60.2008 25.8306Z" fill="url(#paint54_linear_80_6248)"/>
<path style="mix-blend-mode:soft-light" d="M61.0627 24.9617L60.5845 25.4399L70.6393 35.4948L71.1176 35.0165L61.0627 24.9617Z" fill="url(#paint55_linear_80_6248)"/>
<path style="mix-blend-mode:soft-light" d="M61.8276 24.2173L61.5952 24.4497L71.6501 34.5046L71.8825 34.2721L61.8276 24.2173Z" fill="url(#paint56_linear_80_6248)"/>
</g>
</g>
<path d="M65.0795 35.7251H65.4082V25.6869H65.0795V35.7251Z" fill="#FFDEE3"/>
<path d="M66.8399 35.7251H67.0264V25.6869H66.8399V35.7251Z" fill="#2FAC3E"/>
<path d="M64.8926 35.7251H65.0791V25.6869H64.8926V35.7251Z" fill="#2FAC3E"/>
<path d="M19.8439 63.1121H9.81836V74.8064H19.8439V63.1121Z" fill="#2FAC3E"/>
<path d="M19.8442 63.7947H10.4033V74.8095H19.8442V63.7947Z" fill="#FFF3F3"/>
<path d="M19.4267 64.2815H10.8203V74.3197H19.4267V64.2815Z" fill="#091E53"/>
<mask id="mask17_80_6248" style="mask-type:luminance" maskUnits="userSpaceOnUse" x="10" y="64" width="10" height="11">
<path d="M19.4267 64.2815H10.8203V74.3197H19.4267V64.2815Z" fill="white"/>
</mask>
<g mask="url(#mask17_80_6248)">
<g opacity="0.5">
<path style="mix-blend-mode:soft-light" d="M9.9445 64.4283L8.63037 65.7424L18.6852 75.7973L19.9994 74.4832L9.9445 64.4283Z" fill="url(#paint57_linear_80_6248)"/>
<path style="mix-blend-mode:soft-light" d="M10.8098 63.5593L10.3315 64.0376L20.3864 74.0925L20.8647 73.6142L10.8098 63.5593Z" fill="url(#paint58_linear_80_6248)"/>
<path style="mix-blend-mode:soft-light" d="M11.5625 62.8061L11.3301 63.0386L21.385 73.0934L21.6174 72.861L11.5625 62.8061Z" fill="url(#paint59_linear_80_6248)"/>
</g>
</g>
<path d="M15.2862 64.2815H14.9575V74.3197H15.2862V64.2815Z" fill="#FFF3F3"/>
<path d="M10.9848 64.2815H10.7983V74.3197H10.9848V64.2815Z" fill="#2FAC3E"/>
<path d="M15.4599 64.2815H15.2734V74.3197H15.4599V64.2815Z" fill="#2FAC3E"/>
<path d="M33.6559 63.1121H23.6304V74.8064H33.6559V63.1121Z" fill="#2FAC3E"/>
<path d="M33.6557 63.7947H24.2148V74.8095H33.6557V63.7947Z" fill="#FFF3F3"/>
<path d="M33.2356 64.2815H24.6323V74.3197H33.2356V64.2815Z" fill="#091E53"/>
<mask id="mask18_80_6248" style="mask-type:luminance" maskUnits="userSpaceOnUse" x="24" y="64" width="10" height="11">
<path d="M33.2351 64.2815H24.6318V74.3197H33.2351V64.2815Z" fill="white"/>
</mask>
<g mask="url(#mask18_80_6248)">
<g opacity="0.5">
<path style="mix-blend-mode:soft-light" d="M23.757 64.4251L22.4429 65.7393L32.4977 75.7941L33.8119 74.48L23.757 64.4251Z" fill="url(#paint60_linear_80_6248)"/>
<path style="mix-blend-mode:soft-light" d="M24.6223 63.5623L24.144 64.0405L34.1989 74.0954L34.6772 73.6171L24.6223 63.5623Z" fill="url(#paint61_linear_80_6248)"/>
<path style="mix-blend-mode:soft-light" d="M25.3745 62.8061L25.1421 63.0386L35.197 73.0934L35.4294 72.861L25.3745 62.8061Z" fill="url(#paint62_linear_80_6248)"/>
</g>
</g>
<path d="M29.1017 64.2815H28.7729V74.3197H29.1017V64.2815Z" fill="#FFF3F3"/>
<path d="M24.7963 64.2815H24.6099V74.3197H24.7963V64.2815Z" fill="#2FAC3E"/>
<path d="M29.2724 64.2815H29.0859V74.3197H29.2724V64.2815Z" fill="#2FAC3E"/>
<path d="M47.4679 63.1121H37.4424V74.8064H47.4679V63.1121Z" fill="#2FAC3E"/>
<path d="M47.4682 63.7947H38.0273V74.8095H47.4682V63.7947Z" fill="#FFF3F3"/>
<path d="M47.0508 64.2815H38.4443V74.3197H47.0508V64.2815Z" fill="#091E53"/>
<mask id="mask19_80_6248" style="mask-type:luminance" maskUnits="userSpaceOnUse" x="38" y="64" width="10" height="11">
<path d="M47.0508 64.2815H38.4443V74.3197H47.0508V64.2815Z" fill="white"/>
</mask>
<g mask="url(#mask19_80_6248)">
<g opacity="0.5">
<path style="mix-blend-mode:soft-light" d="M37.569 64.4278L36.2549 65.7419L46.3098 75.7968L47.6239 74.4827L37.569 64.4278Z" fill="url(#paint63_linear_80_6248)"/>
<path style="mix-blend-mode:soft-light" d="M38.4368 63.5566L37.9585 64.0349L48.0134 74.0898L48.4916 73.6115L38.4368 63.5566Z" fill="url(#paint64_linear_80_6248)"/>
<path style="mix-blend-mode:soft-light" d="M39.1865 62.8152L38.9541 63.0476L49.009 73.1025L49.2414 72.87L39.1865 62.8152Z" fill="url(#paint65_linear_80_6248)"/>
</g>
</g>
<path d="M42.9132 64.2815H42.5845V74.3197H42.9132V64.2815Z" fill="#FFF3F3"/>
<path d="M38.6088 64.2815H38.4224V74.3197H38.6088V64.2815Z" fill="#2FAC3E"/>
<path d="M43.0874 64.2815H42.9009V74.3197H43.0874V64.2815Z" fill="#2FAC3E"/>
<path d="M19.8439 43.8132H9.81836V55.5076H19.8439V43.8132Z" fill="#2FAC3E"/>
<path d="M19.8442 44.4958H10.4033V55.5107H19.8442V44.4958Z" fill="#FFF3F3"/>
<path d="M19.4267 44.9827H10.8203V55.0209H19.4267V44.9827Z" fill="#091E53"/>
<mask id="mask20_80_6248" style="mask-type:luminance" maskUnits="userSpaceOnUse" x="10" y="44" width="10" height="12">
<path d="M19.4267 44.9827H10.8203V55.0209H19.4267V44.9827Z" fill="white"/>
</mask>
<g mask="url(#mask20_80_6248)">
<g opacity="0.5">
<path style="mix-blend-mode:soft-light" d="M9.94206 45.1275L8.62793 46.4417L18.6828 56.4965L19.9969 55.1824L9.94206 45.1275Z" fill="url(#paint66_linear_80_6248)"/>
<path style="mix-blend-mode:soft-light" d="M10.8069 44.2615L10.3286 44.7397L20.3835 54.7946L20.8618 54.3163L10.8069 44.2615Z" fill="url(#paint67_linear_80_6248)"/>
<path style="mix-blend-mode:soft-light" d="M11.5635 43.5054L11.3311 43.7378L21.3859 53.7927L21.6184 53.5602L11.5635 43.5054Z" fill="url(#paint68_linear_80_6248)"/>
</g>
</g>
<path d="M15.2862 44.9827H14.9575V55.0209H15.2862V44.9827Z" fill="#FFF3F3"/>
<path d="M10.9848 44.9827H10.7983V55.0209H10.9848V44.9827Z" fill="#2FAC3E"/>
<path d="M15.4599 44.9827H15.2734V55.0209H15.4599V44.9827Z" fill="#2FAC3E"/>
<path d="M33.6559 43.8132H23.6304V55.5076H33.6559V43.8132Z" fill="#2FAC3E"/>
<path d="M33.6557 44.4958H24.2148V55.5107H33.6557V44.4958Z" fill="#FFF3F3"/>
<path d="M33.2356 44.9827H24.6323V55.0209H33.2356V44.9827Z" fill="#091E53"/>
<mask id="mask21_80_6248" style="mask-type:luminance" maskUnits="userSpaceOnUse" x="24" y="44" width="10" height="12">
<path d="M33.2351 44.9827H24.6318V55.0209H33.2351V44.9827Z" fill="white"/>
</mask>
<g mask="url(#mask21_80_6248)">
<g opacity="0.5">
<path style="mix-blend-mode:soft-light" d="M23.755 45.1273L22.4409 46.4414L32.4958 56.4963L33.8099 55.1822L23.755 45.1273Z" fill="url(#paint69_linear_80_6248)"/>
<path style="mix-blend-mode:soft-light" d="M24.6204 44.2646L24.1421 44.7429L34.197 54.7978L34.6752 54.3195L24.6204 44.2646Z" fill="url(#paint70_linear_80_6248)"/>
<path style="mix-blend-mode:soft-light" d="M25.3755 43.5083L25.1431 43.7407L35.1979 53.7956L35.4304 53.5632L25.3755 43.5083Z" fill="url(#paint71_linear_80_6248)"/>
</g>
</g>
<path d="M29.1017 44.9827H28.7729V55.0209H29.1017V44.9827Z" fill="#FFF3F3"/>
<path d="M24.7963 44.9827H24.6099V55.0209H24.7963V44.9827Z" fill="#2FAC3E"/>
<path d="M29.2724 44.9827H29.0859V55.0209H29.2724V44.9827Z" fill="#2FAC3E"/>
<path d="M47.4679 43.8132H37.4424V55.5076H47.4679V43.8132Z" fill="#2FAC3E"/>
<path d="M47.4682 44.4958H38.0273V55.5107H47.4682V44.4958Z" fill="#FFF3F3"/>
<path d="M47.0508 44.9827H38.4443V55.0209H47.0508V44.9827Z" fill="#091E53"/>
<mask id="mask22_80_6248" style="mask-type:luminance" maskUnits="userSpaceOnUse" x="38" y="44" width="10" height="12">
<path d="M47.0508 44.9827H38.4443V55.0209H47.0508V44.9827Z" fill="white"/>
</mask>
<g mask="url(#mask22_80_6248)">
<g opacity="0.5">
<path style="mix-blend-mode:soft-light" d="M37.5666 45.1302L36.2524 46.4443L46.3073 56.4992L47.6214 55.1851L37.5666 45.1302Z" fill="url(#paint72_linear_80_6248)"/>
<path style="mix-blend-mode:soft-light" d="M38.4348 44.259L37.9565 44.7373L48.0114 54.7922L48.4897 54.3139L38.4348 44.259Z" fill="url(#paint73_linear_80_6248)"/>
<path style="mix-blend-mode:soft-light" d="M39.188 43.5144L38.9556 43.7468L49.0104 53.8017L49.2429 53.5693L39.188 43.5144Z" fill="url(#paint74_linear_80_6248)"/>
</g>
</g>
<path d="M42.9132 44.9827H42.5845V55.0209H42.9132V44.9827Z" fill="#FFF3F3"/>
<path d="M38.6088 44.9827H38.4224V55.0209H38.6088V44.9827Z" fill="#2FAC3E"/>
<path d="M43.0874 44.9827H42.9009V55.0209H43.0874V44.9827Z" fill="#2FAC3E"/>
<path d="M19.8439 24.5144H9.81836V36.2088H19.8439V24.5144Z" fill="#2FAC3E"/>
<path d="M19.8442 25.197H10.4033V36.2119H19.8442V25.197Z" fill="#FFF3F3"/>
<path d="M19.4267 25.6838H10.8203V35.722H19.4267V25.6838Z" fill="#091E53"/>
<mask id="mask23_80_6248" style="mask-type:luminance" maskUnits="userSpaceOnUse" x="10" y="25" width="10" height="11">
<path d="M19.4267 25.6838H10.8203V35.722H19.4267V25.6838Z" fill="white"/>
</mask>
<g mask="url(#mask23_80_6248)">
<g opacity="0.5">
<path style="mix-blend-mode:soft-light" d="M9.94304 25.8299L8.62891 27.144L18.6838 37.1989L19.9979 35.8848L9.94304 25.8299Z" fill="url(#paint75_linear_80_6248)"/>
<path style="mix-blend-mode:soft-light" d="M10.8049 24.9641L10.3267 25.4424L20.3815 35.4973L20.8598 35.019L10.8049 24.9641Z" fill="url(#paint76_linear_80_6248)"/>
<path style="mix-blend-mode:soft-light" d="M11.563 24.2102L11.3306 24.4426L21.3854 34.4975L21.6179 34.2651L11.563 24.2102Z" fill="url(#paint77_linear_80_6248)"/>
</g>
</g>
<path d="M15.2862 25.6838H14.9575V35.722H15.2862V25.6838Z" fill="#FFF3F3"/>
<path d="M10.9848 25.6838H10.7983V35.722H10.9848V25.6838Z" fill="#2FAC3E"/>
<path d="M15.4599 25.6838H15.2734V35.722H15.4599V25.6838Z" fill="#2FAC3E"/>
<path d="M33.6559 24.5144H23.6304V36.2088H33.6559V24.5144Z" fill="#2FAC3E"/>
<path d="M33.6557 25.197H24.2148V36.2119H33.6557V25.197Z" fill="#FFF3F3"/>
<path d="M33.2356 25.6838H24.6323V35.722H33.2356V25.6838Z" fill="#091E53"/>
<mask id="mask24_80_6248" style="mask-type:luminance" maskUnits="userSpaceOnUse" x="24" y="25" width="10" height="11">
<path d="M33.2351 25.6838H24.6318V35.722H33.2351V25.6838Z" fill="white"/>
</mask>
<g mask="url(#mask24_80_6248)">
<g opacity="0.5">
<path style="mix-blend-mode:soft-light" d="M23.7565 25.8297L22.4424 27.1438L32.4973 37.1987L33.8114 35.8845L23.7565 25.8297Z" fill="url(#paint78_linear_80_6248)"/>
<path style="mix-blend-mode:soft-light" d="M24.6218 24.9639L24.1436 25.4421L34.1984 35.497L34.6767 35.0187L24.6218 24.9639Z" fill="url(#paint79_linear_80_6248)"/>
<path style="mix-blend-mode:soft-light" d="M25.3765 24.2099L25.144 24.4424L35.1989 34.4973L35.4313 34.2648L25.3765 24.2099Z" fill="url(#paint80_linear_80_6248)"/>
</g>
</g>
<path d="M29.1017 25.6838H28.7729V35.722H29.1017V25.6838Z" fill="#FFF3F3"/>
<path d="M24.7963 25.6838H24.6099V35.722H24.7963V25.6838Z" fill="#2FAC3E"/>
<path d="M29.2724 25.6838H29.0859V35.722H29.2724V25.6838Z" fill="#2FAC3E"/>
<path d="M47.4679 24.5144H37.4424V36.2088H47.4679V24.5144Z" fill="#2FAC3E"/>
<path d="M47.4682 25.197H38.0273V36.2119H47.4682V25.197Z" fill="#FFF3F3"/>
<path d="M47.0508 25.6838H38.4443V35.722H47.0508V25.6838Z" fill="#091E53"/>
<mask id="mask25_80_6248" style="mask-type:luminance" maskUnits="userSpaceOnUse" x="38" y="25" width="10" height="11">
<path d="M47.0508 25.6838H38.4443V35.722H47.0508V25.6838Z" fill="white"/>
</mask>
<g mask="url(#mask25_80_6248)">
<g opacity="0.5">
<path style="mix-blend-mode:soft-light" d="M37.568 25.8328L36.2539 27.147L46.3088 37.2018L47.6229 35.8877L37.568 25.8328Z" fill="url(#paint81_linear_80_6248)"/>
<path style="mix-blend-mode:soft-light" d="M38.4324 24.9614L37.9541 25.4397L48.009 35.4946L48.4872 35.0163L38.4324 24.9614Z" fill="url(#paint82_linear_80_6248)"/>
<path style="mix-blend-mode:soft-light" d="M39.1914 24.2161L38.959 24.4485L49.0139 34.5034L49.2463 34.2709L39.1914 24.2161Z" fill="url(#paint83_linear_80_6248)"/>
</g>
</g>
<path d="M42.9132 25.6838H42.5845V35.722H42.9132V25.6838Z" fill="#FFF3F3"/>
<path d="M38.6088 25.6838H38.4224V35.722H38.6088V25.6838Z" fill="#2FAC3E"/>
<path d="M43.0874 25.6838H42.9009V35.722H43.0874V25.6838Z" fill="#2FAC3E"/>
<path d="M17.5618 105.171H12.5332V135.813H17.5618V105.171Z" fill="#2FAC3E"/>
<path d="M15.5139 105.171H10.4854V135.813H15.5139V105.171Z" fill="#FFF3F3"/>
<path d="M12.094 108.562H11.4492V135.813H12.094V108.562Z" fill="#057C13"/>
<path d="M12.0906 108.739H11.626V135.813H12.0906V108.739Z" fill="#2FAC3E"/>
<path d="M13.323 108.562H12.6782V135.813H13.323V108.562Z" fill="#057C13"/>
<path d="M13.3167 108.739H12.8521V135.813H13.3167V108.739Z" fill="#2FAC3E"/>
<path d="M14.5496 108.562H13.9048V135.813H14.5496V108.562Z" fill="#057C13"/>
<path d="M14.5462 108.739H14.0815V135.813H14.5462V108.739Z" fill="#2FAC3E"/>
<path d="M16.1741 108.562H15.896V135.813H16.1741V108.562Z" fill="#057C13"/>
<path d="M16.1744 108.739H15.9722V135.813H16.1744V108.739Z" fill="#2FAC3E"/>
<path d="M16.7054 108.562H16.4272V135.813H16.7054V108.562Z" fill="#057C13"/>
<path d="M16.7052 108.739H16.5029V135.813H16.7052V108.739Z" fill="#2FAC3E"/>
<path d="M17.2396 108.562H16.9614V135.813H17.2396V108.562Z" fill="#057C13"/>
<path d="M17.2394 108.739H17.0371V135.813H17.2394V108.739Z" fill="#2FAC3E"/>
<path d="M46.8006 105.171H41.772V135.813H46.8006V105.171Z" fill="#2FAC3E"/>
<path d="M44.7527 105.171H39.7241V135.813H44.7527V105.171Z" fill="#FFF3F3"/>
<path d="M41.3357 108.562H40.6909V135.813H41.3357V108.562Z" fill="#057C13"/>
<path d="M41.3289 108.739H40.8643V135.813H41.3289V108.739Z" fill="#2FAC3E"/>
<path d="M42.5618 108.562H41.917V135.813H42.5618V108.562Z" fill="#057C13"/>
<path d="M42.5584 108.739H42.0938V135.813H42.5584V108.739Z" fill="#2FAC3E"/>
<path d="M43.7913 108.562H43.1465V135.813H43.7913V108.562Z" fill="#057C13"/>
<path d="M43.7844 108.739H43.3198V135.813H43.7844V108.739Z" fill="#2FAC3E"/>
<path d="M45.4139 108.562H45.1357V135.813H45.4139V108.562Z" fill="#057C13"/>
<path d="M45.4132 108.739H45.2109V135.813H45.4132V108.739Z" fill="#2FAC3E"/>
<path d="M45.9442 108.562H45.666V135.813H45.9442V108.562Z" fill="#057C13"/>
<path d="M45.944 108.739H45.7417V135.813H45.944V108.739Z" fill="#2FAC3E"/>
<path d="M46.4783 108.562H46.2002V135.813H46.4783V108.562Z" fill="#057C13"/>
<path d="M46.4777 108.739H46.2754V135.813H46.4777V108.739Z" fill="#2FAC3E"/>
<path d="M66.9408 102.927H5.50732V106.729H66.9408V102.927Z" fill="#FFF3F3"/>
<g style="mix-blend-mode:multiply" opacity="0.4">
<path d="M69.7191 95.9702H7.81152V96.8078H69.7191V95.9702Z" fill="#2FAC3E"/>
</g>
<path d="M69.7191 95.4424H7.81152V96.28H69.7191V95.4424Z" fill="#FFF3F3"/>
<path d="M69.7188 95.4424H49.4844V96.28H69.7188V95.4424Z" fill="#2FAC3E"/>
<path d="M71.7762 102.927H50.7832V106.729H71.7762V102.927Z" fill="#2FAC3E"/>
<g style="mix-blend-mode:multiply" opacity="0.4">
<path d="M69.7254 18.6577H7.81152V22.4568H69.7254V18.6577Z" fill="#FFC6CC"/>
</g>
<path d="M66.9413 18.1299H5.50781V21.9321H66.9413V18.1299Z" fill="#2FAC3E"/>
<path d="M71.7762 18.1299H50.7832V21.9321H71.7762V18.1299Z" fill="#057C13"/>
<path d="M38.147 111.167H19.1357V138.405H38.147V111.167Z" fill="#2FAC3E"/>
<path d="M19.6348 111.577V117.737V117.772V138.405H38.1498V117.772V117.737V111.577H19.6348Z" fill="#091E53"/>
<mask id="mask26_80_6248" style="mask-type:luminance" maskUnits="userSpaceOnUse" x="19" y="111" width="20" height="28">
<path d="M19.6348 111.577V117.737V117.772V138.405H38.1498V117.772V117.737V111.577H19.6348Z" fill="white"/>
</mask>
<g mask="url(#mask26_80_6248)">
<g opacity="0.5">
<path style="mix-blend-mode:soft-light" d="M12.6851 118.88L9.48242 122.083L33.9659 146.566L37.1685 143.364L12.6851 118.88Z" fill="url(#paint84_linear_80_6248)"/>
<path style="mix-blend-mode:soft-light" d="M14.7923 116.775L13.6279 117.939L38.1114 142.422L39.2758 141.258L14.7923 116.775Z" fill="url(#paint85_linear_80_6248)"/>
<path style="mix-blend-mode:soft-light" d="M16.6265 114.941L16.061 115.506L40.5445 139.99L41.1099 139.424L16.6265 114.941Z" fill="url(#paint86_linear_80_6248)"/>
</g>
</g>
<path d="M38.1467 111.577H19.6348V112.077H38.1467V111.577Z" fill="#FFF3F3"/>
<path d="M38.1467 114.567H19.6348V114.779H38.1467V114.567Z" fill="#FFF3F3"/>
<path d="M28.7852 111.577V138.405H28.9969V111.577H28.7852Z" fill="#FFF3F3"/>
<path d="M38.1467 117.273H19.6348V117.772H38.1467V117.273Z" fill="#FFF3F3"/>
<path d="M50.4575 138.405H68.707V111.167H50.4575V138.405Z" fill="#2FAC3E"/>
<path d="M68.2964 111.577V117.737V117.772V138.405H50.4546V117.772V117.737V111.577H68.2964Z" fill="#011230"/>
<mask id="mask27_80_6248" style="mask-type:luminance" maskUnits="userSpaceOnUse" x="50" y="111" width="19" height="28">
<path d="M50.4863 111.577V117.737V117.772V138.405H68.325V117.772V117.737V111.577H50.4863Z" fill="white"/>
</mask>
<g mask="url(#mask27_80_6248)">
<g opacity="0.5">
<path style="mix-blend-mode:soft-light" d="M73.5498 137.602L69.008 140.804L34.2788 116.322L38.8207 113.12L73.5498 137.602Z" fill="url(#paint87_linear_80_6248)"/>
<path style="mix-blend-mode:soft-light" d="M76.5365 135.497L74.8866 136.66L40.1543 112.178L41.8073 111.012L76.5365 135.497Z" fill="url(#paint88_linear_80_6248)"/>
<path style="mix-blend-mode:soft-light" d="M79.1406 133.661L78.341 134.227L43.6118 109.741L44.4115 109.175L79.1406 133.661Z" fill="url(#paint89_linear_80_6248)"/>
</g>
</g>
<path d="M50.4577 112.077H68.2964V111.578H50.4577V112.077Z" fill="#FFDEE3"/>
<path d="M50.4582 117.377H68.2969V117.165H50.4582V117.377Z" fill="#FFDEE3"/>
<path d="M50.4582 123.224H68.2969V123.013H50.4582V123.224Z" fill="#FFDEE3"/>
<path d="M50.4582 129.072H68.2969V128.86H50.4582V129.072Z" fill="#FFDEE3"/>
<path d="M59.2817 111.577V138.405H59.4651V111.577H59.2817Z" fill="#FFDEE3"/>
<path d="M19.9129 105.649V99.0983H20.7062V102.015H24.1991V99.0983H24.9924V105.649H24.1991V102.719H20.7062V105.649H19.9129ZM32.1078 102.374C32.1078 103.065 31.9831 103.662 31.7336 104.165C31.4841 104.668 31.1418 105.056 30.7068 105.329C30.2718 105.602 29.7749 105.739 29.2162 105.739C28.6575 105.739 28.1607 105.602 27.7257 105.329C27.2906 105.056 26.9484 104.668 26.6989 104.165C26.4494 103.662 26.3246 103.065 26.3246 102.374C26.3246 101.683 26.4494 101.086 26.6989 100.582C26.9484 100.079 27.2906 99.6911 27.7257 99.4182C28.1607 99.1452 28.6575 99.0087 29.2162 99.0087C29.7749 99.0087 30.2718 99.1452 30.7068 99.4182C31.1418 99.6911 31.4841 100.079 31.7336 100.582C31.9831 101.086 32.1078 101.683 32.1078 102.374ZM31.3402 102.374C31.3402 101.806 31.2453 101.328 31.0555 100.938C30.8678 100.547 30.613 100.252 30.291 100.051C29.9711 99.851 29.6129 99.7508 29.2162 99.7508C28.8196 99.7508 28.4603 99.851 28.1383 100.051C27.8184 100.252 27.5636 100.547 27.3738 100.938C27.1861 101.328 27.0923 101.806 27.0923 102.374C27.0923 102.941 27.1861 103.42 27.3738 103.81C27.5636 104.2 27.8184 104.496 28.1383 104.696C28.4603 104.896 28.8196 104.997 29.2162 104.997C29.6129 104.997 29.9711 104.896 30.291 104.696C30.613 104.496 30.8678 104.2 31.0555 103.81C31.2453 103.42 31.3402 102.941 31.3402 102.374ZM32.8107 99.802V99.0983H37.7239V99.802H35.664V105.649H34.8707V99.802H32.8107ZM38.9482 105.649V99.0983H42.9018V99.802H39.7415V102.015H42.697V102.719H39.7415V104.945H42.9529V105.649H38.9482ZM44.3316 105.649V99.0983H45.1248V104.945H48.17V105.649H44.3316Z" fill="#091E53"/>
<path d="M0.608019 62.0757C1.81855 62.0757 1.82171 60.1951 0.608019 60.1951C-0.605668 60.1951 -0.605668 62.0757 0.608019 62.0757Z" fill="#2FAC3E"/>
<path d="M37.5875 6.76437C38.798 6.76437 38.8012 4.88379 37.5875 4.88379C36.3738 4.88379 36.3738 6.76437 37.5875 6.76437Z" fill="#2FAC3E"/>
<path d="M78.36 48.1687C79.5705 48.1687 79.5737 46.2881 78.36 46.2881C77.1463 46.2881 77.1463 48.1687 78.36 48.1687Z" fill="#2FAC3E"/>
<path d="M91.6344 19.0908C92.8449 19.0908 92.8481 17.2102 91.6344 17.2102C90.4207 17.2102 90.4207 19.0908 91.6344 19.0908Z" fill="#2FAC3E"/>
<path d="M77.0958 27.6245C78.3063 27.6245 78.3095 25.7439 77.0958 25.7439C75.8821 25.7439 75.8821 27.6245 77.0958 27.6245Z" fill="#2FAC3E"/>
<path d="M104.909 31.4172C106.12 31.4172 106.123 29.5366 104.909 29.5366C103.696 29.5366 103.696 31.4172 104.909 31.4172Z" fill="#2FAC3E"/>
<path d="M103.646 61.1274C104.856 61.1274 104.859 59.2468 103.646 59.2468C102.432 59.2468 102.432 61.1274 103.646 61.1274Z" fill="#2FAC3E"/>
<path d="M84.9977 63.9719C86.2082 63.9719 86.2114 62.0913 84.9977 62.0913C83.784 62.0913 83.784 63.9719 84.9977 63.9719Z" fill="#2FAC3E"/>
<path d="M-0.656141 5.81613C0.554386 5.81613 0.557546 3.93555 -0.656141 3.93555C-1.86983 3.93555 -1.86983 5.81613 -0.656141 5.81613Z" fill="#2FAC3E"/>
<path d="M64.1368 11.6697C64.7436 11.6697 64.7436 10.7278 64.1368 10.7278C63.5299 10.7278 63.5299 11.6697 64.1368 11.6697Z" fill="#2FAC3E"/>
<path d="M11.671 2.8198C12.2778 2.8198 12.2778 1.87793 11.671 1.87793C11.0641 1.87793 11.0641 2.8198 11.671 2.8198Z" fill="#2FAC3E"/>
<path d="M42.0127 7.87693C42.6196 7.87693 42.6196 6.93506 42.0127 6.93506C41.4059 6.93506 41.4059 7.87693 42.0127 7.87693Z" fill="#2FAC3E"/>
<path d="M68.2461 4.40012C68.853 4.40012 68.853 3.45825 68.2461 3.45825C67.6393 3.45825 67.6393 4.40012 68.2461 4.40012Z" fill="#2FAC3E"/>
<path d="M97.9561 5.98045C98.563 5.98045 98.563 5.03857 97.9561 5.03857C97.3493 5.03857 97.3493 5.98045 97.9561 5.98045Z" fill="#2FAC3E"/>
<path d="M92.2667 23.0478C92.8735 23.0478 92.8735 22.106 92.2667 22.106C91.6598 22.106 91.6598 23.0478 92.2667 23.0478Z" fill="#2FAC3E"/>
<path d="M93.2149 43.592C93.8217 43.592 93.8217 42.6501 93.2149 42.6501C92.6081 42.6501 92.6081 43.592 93.2149 43.592Z" fill="#2FAC3E"/>
<path d="M79.6241 67.2969C80.2309 67.2969 80.2309 66.355 79.6241 66.355C79.0172 66.355 79.0172 67.2969 79.6241 67.2969Z" fill="#2FAC3E"/>
<path d="M108.07 55.2866C108.677 55.2866 108.677 54.3447 108.07 54.3447C107.464 54.3447 107.464 55.2866 108.07 55.2866Z" fill="#2FAC3E"/>
<path d="M109.65 12.6179C110.257 12.6179 110.257 11.676 109.65 11.676C109.044 11.676 109.044 12.6179 109.65 12.6179Z" fill="#2FAC3E"/>
<path d="M90.3702 75.1985C90.977 75.1985 90.977 74.2566 90.3702 74.2566C89.7633 74.2566 89.7633 75.1985 90.3702 75.1985Z" fill="#2FAC3E"/>
<path d="M2.18804 84.0483C2.79489 84.0483 2.79489 83.1064 2.18804 83.1064C1.5812 83.1064 1.5812 84.0483 2.18804 84.0483Z" fill="#2FAC3E"/>
<path d="M103.757 45.2427C108.862 32.6743 102.811 18.3474 90.2429 13.2427C77.6744 8.13805 63.3476 14.1886 58.2429 26.757C53.1382 39.3254 59.1887 53.6523 71.7571 58.757C84.3256 63.8617 98.6524 57.8112 103.757 45.2427Z" fill="#A2ED75"/>
<path d="M93.2452 21.086C87.8615 22.8276 83.6912 26.8641 81.0743 31.7655C79.5167 34.683 78.2451 37.7281 76.988 40.7801C75.2168 39.2865 73.3583 37.899 71.3743 36.678C69.7872 35.7004 67.5441 36.6316 66.6194 38.0397C65.6541 39.5092 65.776 41.7761 67.2761 42.9058C70.3105 45.1915 73.2306 47.5741 75.8739 50.3041C77.6156 52.1029 80.9747 51.1698 81.9262 49.0321C83.8979 44.6042 85.5828 40.0478 87.8427 35.7487C90.0011 31.6425 92.0145 27.2897 95.116 23.8052C96.2811 22.4964 94.8427 20.5692 93.2452 21.086Z" fill="#2F620F"/>
</g>
<defs>
<linearGradient id="paint0_linear_80_6248" x1="4.29696" y1="38.4214" x2="-5.8171" y2="4.28645" gradientUnits="userSpaceOnUse">
<stop stopColor="#F9FEFA" stop-opacity="0"/>
<stop offset="1" stopColor="#E7DBFF"/>
</linearGradient>
<linearGradient id="paint1_linear_80_6248" x1="75.389" y1="8.14854" x2="76.0211" y2="2.03585" gradientUnits="userSpaceOnUse">
<stop stopColor="#F9FEFA" stop-opacity="0"/>
<stop offset="1" stopColor="#DEFFDB"/>
</linearGradient>
<linearGradient id="paint2_linear_80_6248" x1="42.6545" y1="21.932" x2="42.3384" y2="12.4501" gradientUnits="userSpaceOnUse">
<stop stopColor="#F9FEFA" stop-opacity="0"/>
<stop offset="1" stopColor="#DBFFE3"/>
</linearGradient>
<linearGradient id="paint3_linear_80_6248" x1="80.4716" y1="39.107" x2="80.8951" y2="30.2572" gradientUnits="userSpaceOnUse">
<stop stopColor="#F9FEFA" stop-opacity="0"/>
<stop offset="1" stopColor="#E7DBFF"/>
</linearGradient>
<linearGradient id="paint4_linear_80_6248" x1="103.146" y1="25.5858" x2="104.202" y2="20.1052" gradientUnits="userSpaceOnUse">
<stop stopColor="#F9FEFA" stop-opacity="0"/>
<stop offset="1" stopColor="#DBFFDD"/>
</linearGradient>
<linearGradient id="paint5_linear_80_6248" x1="2.59956" y1="47.546" x2="2.59956" y2="42.2772" gradientUnits="userSpaceOnUse">
<stop stopColor="#F9FEFA" stop-opacity="0"/>
<stop offset="1" stopColor="#E7DBFF"/>
</linearGradient>
<linearGradient id="paint6_linear_80_6248" x1="-0.441596" y1="114.991" x2="23.4809" y2="138.914" gradientUnits="userSpaceOnUse">
<stop stopColor="white"/>
<stop offset="1" stopColor="white" stop-opacity="0"/>
</linearGradient>
<linearGradient id="paint7_linear_80_6248" x1="2.68137" y1="111.863" x2="26.6039" y2="135.786" gradientUnits="userSpaceOnUse">
<stop stopColor="white"/>
<stop offset="1" stopColor="white" stop-opacity="0"/>
</linearGradient>
<linearGradient id="paint8_linear_80_6248" x1="4.81968" y1="109.729" x2="28.7422" y2="133.651" gradientUnits="userSpaceOnUse">
<stop stopColor="white"/>
<stop offset="1" stopColor="white" stop-opacity="0"/>
</linearGradient>
<linearGradient id="paint9_linear_80_6248" x1="30.2606" y1="114.988" x2="54.1808" y2="138.909" gradientUnits="userSpaceOnUse">
<stop stopColor="white"/>
<stop offset="1" stopColor="white" stop-opacity="0"/>
</linearGradient>
<linearGradient id="paint10_linear_80_6248" x1="33.3853" y1="111.866" x2="57.3055" y2="135.786" gradientUnits="userSpaceOnUse">
<stop stopColor="white"/>
<stop offset="1" stopColor="white" stop-opacity="0"/>
</linearGradient>
<linearGradient id="paint11_linear_80_6248" x1="35.5218" y1="109.729" x2="59.4421" y2="133.649" gradientUnits="userSpaceOnUse">
<stop stopColor="white"/>
<stop offset="1" stopColor="white" stop-opacity="0"/>
</linearGradient>
<linearGradient id="paint12_linear_80_6248" x1="9.39772" y1="84.4902" x2="19.2202" y2="94.3127" gradientUnits="userSpaceOnUse">
<stop stopColor="white"/>
<stop offset="1" stopColor="white" stop-opacity="0"/>
</linearGradient>
<linearGradient id="paint13_linear_80_6248" x1="10.6832" y1="83.2088" x2="20.5056" y2="93.0312" gradientUnits="userSpaceOnUse">
<stop stopColor="white"/>
<stop offset="1" stopColor="white" stop-opacity="0"/>
</linearGradient>
<linearGradient id="paint14_linear_80_6248" x1="11.5617" y1="82.3297" x2="21.3842" y2="92.1522" gradientUnits="userSpaceOnUse">
<stop stopColor="white"/>
<stop offset="1" stopColor="white" stop-opacity="0"/>
</linearGradient>
<linearGradient id="paint15_linear_80_6248" x1="23.2097" y1="84.4945" x2="33.0344" y2="94.3192" gradientUnits="userSpaceOnUse">
<stop stopColor="white"/>
<stop offset="1" stopColor="white" stop-opacity="0"/>
</linearGradient>
<linearGradient id="paint16_linear_80_6248" x1="24.493" y1="83.2037" x2="34.3177" y2="93.0284" gradientUnits="userSpaceOnUse">
<stop stopColor="white"/>
<stop offset="1" stopColor="white" stop-opacity="0"/>
</linearGradient>
<linearGradient id="paint17_linear_80_6248" x1="25.3738" y1="82.3295" x2="35.1984" y2="92.1542" gradientUnits="userSpaceOnUse">
<stop stopColor="white"/>
<stop offset="1" stopColor="white" stop-opacity="0"/>
</linearGradient>
<linearGradient id="paint18_linear_80_6248" x1="37.0227" y1="84.49" x2="46.8474" y2="94.3147" gradientUnits="userSpaceOnUse">
<stop stopColor="white"/>
<stop offset="1" stopColor="white" stop-opacity="0"/>
</linearGradient>
<linearGradient id="paint19_linear_80_6248" x1="38.3062" y1="83.2095" x2="48.1308" y2="93.0342" gradientUnits="userSpaceOnUse">
<stop stopColor="white"/>
<stop offset="1" stopColor="white" stop-opacity="0"/>
</linearGradient>
<linearGradient id="paint20_linear_80_6248" x1="39.1845" y1="82.3186" x2="49.0092" y2="92.1433" gradientUnits="userSpaceOnUse">
<stop stopColor="white"/>
<stop offset="1" stopColor="white" stop-opacity="0"/>
</linearGradient>
<linearGradient id="paint21_linear_80_6248" x1="47.7867" y1="84.4935" x2="57.6091" y2="94.3159" gradientUnits="userSpaceOnUse">
<stop stopColor="white"/>
<stop offset="1" stopColor="white" stop-opacity="0"/>
</linearGradient>
<linearGradient id="paint22_linear_80_6248" x1="49.0699" y1="83.2097" x2="58.8924" y2="93.0322" gradientUnits="userSpaceOnUse">
<stop stopColor="white"/>
<stop offset="1" stopColor="white" stop-opacity="0"/>
</linearGradient>
<linearGradient id="paint23_linear_80_6248" x1="49.948" y1="82.3349" x2="59.7704" y2="92.1574" gradientUnits="userSpaceOnUse">
<stop stopColor="white"/>
<stop offset="1" stopColor="white" stop-opacity="0"/>
</linearGradient>
<linearGradient id="paint24_linear_80_6248" x1="53.7208" y1="84.4932" x2="63.5432" y2="94.3157" gradientUnits="userSpaceOnUse">
<stop stopColor="white"/>
<stop offset="1" stopColor="white" stop-opacity="0"/>
</linearGradient>
<linearGradient id="paint25_linear_80_6248" x1="55.004" y1="83.2095" x2="64.8264" y2="93.0319" gradientUnits="userSpaceOnUse">
<stop stopColor="white"/>
<stop offset="1" stopColor="white" stop-opacity="0"/>
</linearGradient>
<linearGradient id="paint26_linear_80_6248" x1="55.8825" y1="82.3349" x2="65.705" y2="92.1574" gradientUnits="userSpaceOnUse">
<stop stopColor="white"/>
<stop offset="1" stopColor="white" stop-opacity="0"/>
</linearGradient>
<linearGradient id="paint27_linear_80_6248" x1="59.655" y1="84.4959" x2="69.4775" y2="94.3184" gradientUnits="userSpaceOnUse">
<stop stopColor="white"/>
<stop offset="1" stopColor="white" stop-opacity="0"/>
</linearGradient>
<linearGradient id="paint28_linear_80_6248" x1="60.9405" y1="83.21" x2="70.763" y2="93.0324" gradientUnits="userSpaceOnUse">
<stop stopColor="white"/>
<stop offset="1" stopColor="white" stop-opacity="0"/>
</linearGradient>
<linearGradient id="paint29_linear_80_6248" x1="61.8186" y1="82.3223" x2="71.641" y2="92.1448" gradientUnits="userSpaceOnUse">
<stop stopColor="white"/>
<stop offset="1" stopColor="white" stop-opacity="0"/>
</linearGradient>
<linearGradient id="paint30_linear_80_6248" x1="47.7876" y1="65.1924" x2="57.6123" y2="75.0171" gradientUnits="userSpaceOnUse">
<stop stopColor="white"/>
<stop offset="1" stopColor="white" stop-opacity="0"/>
</linearGradient>
<linearGradient id="paint31_linear_80_6248" x1="49.0714" y1="63.9147" x2="58.8961" y2="73.7394" gradientUnits="userSpaceOnUse">
<stop stopColor="white"/>
<stop offset="1" stopColor="white" stop-opacity="0"/>
</linearGradient>
<linearGradient id="paint32_linear_80_6248" x1="49.9443" y1="63.0319" x2="59.7689" y2="72.8566" gradientUnits="userSpaceOnUse">
<stop stopColor="white"/>
<stop offset="1" stopColor="white" stop-opacity="0"/>
</linearGradient>
<linearGradient id="paint33_linear_80_6248" x1="53.7222" y1="65.1924" x2="63.5469" y2="75.0171" gradientUnits="userSpaceOnUse">
<stop stopColor="white"/>
<stop offset="1" stopColor="white" stop-opacity="0"/>
</linearGradient>
<linearGradient id="paint34_linear_80_6248" x1="55.0055" y1="63.9145" x2="64.8301" y2="73.7391" gradientUnits="userSpaceOnUse">
<stop stopColor="white"/>
<stop offset="1" stopColor="white" stop-opacity="0"/>
</linearGradient>
<linearGradient id="paint35_linear_80_6248" x1="55.8783" y1="63.0319" x2="65.703" y2="72.8566" gradientUnits="userSpaceOnUse">
<stop stopColor="white"/>
<stop offset="1" stopColor="white" stop-opacity="0"/>
</linearGradient>
<linearGradient id="paint36_linear_80_6248" x1="59.6583" y1="65.1929" x2="69.4829" y2="75.0176" gradientUnits="userSpaceOnUse">
<stop stopColor="white"/>
<stop offset="1" stopColor="white" stop-opacity="0"/>
</linearGradient>
<linearGradient id="paint37_linear_80_6248" x1="60.9415" y1="63.915" x2="70.7662" y2="73.7396" gradientUnits="userSpaceOnUse">
<stop stopColor="white"/>
<stop offset="1" stopColor="white" stop-opacity="0"/>
</linearGradient>
<linearGradient id="paint38_linear_80_6248" x1="61.8178" y1="63.0193" x2="71.6425" y2="72.844" gradientUnits="userSpaceOnUse">
<stop stopColor="white"/>
<stop offset="1" stopColor="white" stop-opacity="0"/>
</linearGradient>
<linearGradient id="paint39_linear_80_6248" x1="47.7862" y1="45.8948" x2="57.6086" y2="55.7173" gradientUnits="userSpaceOnUse">
<stop stopColor="white"/>
<stop offset="1" stopColor="white" stop-opacity="0"/>
</linearGradient>
<linearGradient id="paint40_linear_80_6248" x1="49.0712" y1="44.6189" x2="58.8936" y2="54.4413" gradientUnits="userSpaceOnUse">
<stop stopColor="white"/>
<stop offset="1" stopColor="white" stop-opacity="0"/>
</linearGradient>
<linearGradient id="paint41_linear_80_6248" x1="49.9485" y1="43.7363" x2="59.7709" y2="53.5587" gradientUnits="userSpaceOnUse">
<stop stopColor="white"/>
<stop offset="1" stopColor="white" stop-opacity="0"/>
</linearGradient>
<linearGradient id="paint42_linear_80_6248" x1="53.7208" y1="45.8948" x2="63.5432" y2="55.7173" gradientUnits="userSpaceOnUse">
<stop stopColor="white"/>
<stop offset="1" stopColor="white" stop-opacity="0"/>
</linearGradient>
<linearGradient id="paint43_linear_80_6248" x1="55.0062" y1="44.6189" x2="64.8287" y2="54.4413" gradientUnits="userSpaceOnUse">
<stop stopColor="white"/>
<stop offset="1" stopColor="white" stop-opacity="0"/>
</linearGradient>
<linearGradient id="paint44_linear_80_6248" x1="55.882" y1="43.7363" x2="65.7045" y2="53.5587" gradientUnits="userSpaceOnUse">
<stop stopColor="white"/>
<stop offset="1" stopColor="white" stop-opacity="0"/>
</linearGradient>
<linearGradient id="paint45_linear_80_6248" x1="59.6546" y1="45.8973" x2="69.477" y2="55.7198" gradientUnits="userSpaceOnUse">
<stop stopColor="white"/>
<stop offset="1" stopColor="white" stop-opacity="0"/>
</linearGradient>
<linearGradient id="paint46_linear_80_6248" x1="60.9423" y1="44.6193" x2="70.7647" y2="54.4418" gradientUnits="userSpaceOnUse">
<stop stopColor="white"/>
<stop offset="1" stopColor="white" stop-opacity="0"/>
</linearGradient>
<linearGradient id="paint47_linear_80_6248" x1="61.8198" y1="43.7228" x2="71.6422" y2="53.5452" gradientUnits="userSpaceOnUse">
<stop stopColor="white"/>
<stop offset="1" stopColor="white" stop-opacity="0"/>
</linearGradient>
<linearGradient id="paint48_linear_80_6248" x1="47.7849" y1="26.5947" x2="57.6096" y2="36.4194" gradientUnits="userSpaceOnUse">
<stop stopColor="white"/>
<stop offset="1" stopColor="white" stop-opacity="0"/>
</linearGradient>
<linearGradient id="paint49_linear_80_6248" x1="49.0675" y1="25.319" x2="58.8922" y2="35.1437" gradientUnits="userSpaceOnUse">
<stop stopColor="white"/>
<stop offset="1" stopColor="white" stop-opacity="0"/>
</linearGradient>
<linearGradient id="paint50_linear_80_6248" x1="49.9457" y1="24.4386" x2="59.7704" y2="34.2633" gradientUnits="userSpaceOnUse">
<stop stopColor="white"/>
<stop offset="1" stopColor="white" stop-opacity="0"/>
</linearGradient>
<linearGradient id="paint51_linear_80_6248" x1="53.7217" y1="26.5928" x2="63.5464" y2="36.4174" gradientUnits="userSpaceOnUse">
<stop stopColor="white"/>
<stop offset="1" stopColor="white" stop-opacity="0"/>
</linearGradient>
<linearGradient id="paint52_linear_80_6248" x1="55.0043" y1="25.3215" x2="64.829" y2="35.1462" gradientUnits="userSpaceOnUse">
<stop stopColor="white"/>
<stop offset="1" stopColor="white" stop-opacity="0"/>
</linearGradient>
<linearGradient id="paint53_linear_80_6248" x1="55.8803" y1="24.4386" x2="65.705" y2="34.2633" gradientUnits="userSpaceOnUse">
<stop stopColor="white"/>
<stop offset="1" stopColor="white" stop-opacity="0"/>
</linearGradient>
<linearGradient id="paint54_linear_80_6248" x1="59.6578" y1="26.5928" x2="69.4824" y2="36.4174" gradientUnits="userSpaceOnUse">
<stop stopColor="white"/>
<stop offset="1" stopColor="white" stop-opacity="0"/>
</linearGradient>
<linearGradient id="paint55_linear_80_6248" x1="60.9398" y1="25.3215" x2="70.7645" y2="35.1462" gradientUnits="userSpaceOnUse">
<stop stopColor="white"/>
<stop offset="1" stopColor="white" stop-opacity="0"/>
</linearGradient>
<linearGradient id="paint56_linear_80_6248" x1="61.8209" y1="24.4207" x2="71.6456" y2="34.2453" gradientUnits="userSpaceOnUse">
<stop stopColor="white"/>
<stop offset="1" stopColor="white" stop-opacity="0"/>
</linearGradient>
<linearGradient id="paint57_linear_80_6248" x1="9.40142" y1="65.1949" x2="19.2239" y2="75.0173" gradientUnits="userSpaceOnUse">
<stop stopColor="white"/>
<stop offset="1" stopColor="white" stop-opacity="0"/>
</linearGradient>
<linearGradient id="paint58_linear_80_6248" x1="10.6869" y1="63.9147" x2="20.5093" y2="73.7371" gradientUnits="userSpaceOnUse">
<stop stopColor="white"/>
<stop offset="1" stopColor="white" stop-opacity="0"/>
</linearGradient>
<linearGradient id="paint59_linear_80_6248" x1="11.5603" y1="63.0319" x2="21.3827" y2="72.8543" gradientUnits="userSpaceOnUse">
<stop stopColor="white"/>
<stop offset="1" stopColor="white" stop-opacity="0"/>
</linearGradient>
<linearGradient id="paint60_linear_80_6248" x1="23.2162" y1="65.1939" x2="33.0386" y2="75.0164" gradientUnits="userSpaceOnUse">
<stop stopColor="white"/>
<stop offset="1" stopColor="white" stop-opacity="0"/>
</linearGradient>
<linearGradient id="paint61_linear_80_6248" x1="24.4972" y1="63.9109" x2="34.3196" y2="73.7333" gradientUnits="userSpaceOnUse">
<stop stopColor="white"/>
<stop offset="1" stopColor="white" stop-opacity="0"/>
</linearGradient>
<linearGradient id="paint62_linear_80_6248" x1="25.3723" y1="63.0319" x2="35.1947" y2="72.8543" gradientUnits="userSpaceOnUse">
<stop stopColor="white"/>
<stop offset="1" stopColor="white" stop-opacity="0"/>
</linearGradient>
<linearGradient id="paint63_linear_80_6248" x1="37.0282" y1="65.1922" x2="46.8506" y2="75.0146" gradientUnits="userSpaceOnUse">
<stop stopColor="white"/>
<stop offset="1" stopColor="white" stop-opacity="0"/>
</linearGradient>
<linearGradient id="paint64_linear_80_6248" x1="38.3094" y1="63.9165" x2="48.1318" y2="73.7389" gradientUnits="userSpaceOnUse">
<stop stopColor="white"/>
<stop offset="1" stopColor="white" stop-opacity="0"/>
</linearGradient>
<linearGradient id="paint65_linear_80_6248" x1="39.1821" y1="63.0208" x2="49.0045" y2="72.8432" gradientUnits="userSpaceOnUse">
<stop stopColor="white"/>
<stop offset="1" stopColor="white" stop-opacity="0"/>
</linearGradient>
<linearGradient id="paint66_linear_80_6248" x1="9.39898" y1="45.8941" x2="19.2214" y2="55.7165" gradientUnits="userSpaceOnUse">
<stop stopColor="white"/>
<stop offset="1" stopColor="white" stop-opacity="0"/>
</linearGradient>
<linearGradient id="paint67_linear_80_6248" x1="10.6817" y1="44.6191" x2="20.5042" y2="54.4415" gradientUnits="userSpaceOnUse">
<stop stopColor="white"/>
<stop offset="1" stopColor="white" stop-opacity="0"/>
</linearGradient>
<linearGradient id="paint68_linear_80_6248" x1="11.5635" y1="43.7333" x2="21.3859" y2="53.5558" gradientUnits="userSpaceOnUse">
<stop stopColor="white"/>
<stop offset="1" stopColor="white" stop-opacity="0"/>
</linearGradient>
<linearGradient id="paint69_linear_80_6248" x1="23.212" y1="45.8983" x2="33.0366" y2="55.723" gradientUnits="userSpaceOnUse">
<stop stopColor="white"/>
<stop offset="1" stopColor="white" stop-opacity="0"/>
</linearGradient>
<linearGradient id="paint70_linear_80_6248" x1="24.4952" y1="44.6133" x2="34.3199" y2="54.438" gradientUnits="userSpaceOnUse">
<stop stopColor="white"/>
<stop offset="1" stopColor="white" stop-opacity="0"/>
</linearGradient>
<linearGradient id="paint71_linear_80_6248" x1="25.3733" y1="43.734" x2="35.1979" y2="53.5587" gradientUnits="userSpaceOnUse">
<stop stopColor="white"/>
<stop offset="1" stopColor="white" stop-opacity="0"/>
</linearGradient>
<linearGradient id="paint72_linear_80_6248" x1="37.0235" y1="45.8968" x2="46.8482" y2="55.7215" gradientUnits="userSpaceOnUse">
<stop stopColor="white"/>
<stop offset="1" stopColor="white" stop-opacity="0"/>
</linearGradient>
<linearGradient id="paint73_linear_80_6248" x1="38.3074" y1="44.6189" x2="48.1321" y2="54.4435" gradientUnits="userSpaceOnUse">
<stop stopColor="white"/>
<stop offset="1" stopColor="white" stop-opacity="0"/>
</linearGradient>
<linearGradient id="paint74_linear_80_6248" x1="39.1835" y1="43.72" x2="49.0082" y2="53.5447" gradientUnits="userSpaceOnUse">
<stop stopColor="white"/>
<stop offset="1" stopColor="white" stop-opacity="0"/>
</linearGradient>
<linearGradient id="paint75_linear_80_6248" x1="9.39995" y1="26.5965" x2="19.2224" y2="36.4189" gradientUnits="userSpaceOnUse">
<stop stopColor="white"/>
<stop offset="1" stopColor="white" stop-opacity="0"/>
</linearGradient>
<linearGradient id="paint76_linear_80_6248" x1="10.6842" y1="25.3217" x2="20.5067" y2="35.1441" gradientUnits="userSpaceOnUse">
<stop stopColor="white"/>
<stop offset="1" stopColor="white" stop-opacity="0"/>
</linearGradient>
<linearGradient id="paint77_linear_80_6248" x1="11.5608" y1="24.4359" x2="21.3832" y2="34.2584" gradientUnits="userSpaceOnUse">
<stop stopColor="white"/>
<stop offset="1" stopColor="white" stop-opacity="0"/>
</linearGradient>
<linearGradient id="paint78_linear_80_6248" x1="23.2157" y1="26.594" x2="33.0381" y2="36.4164" gradientUnits="userSpaceOnUse">
<stop stopColor="white"/>
<stop offset="1" stopColor="white" stop-opacity="0"/>
</linearGradient>
<linearGradient id="paint79_linear_80_6248" x1="24.4989" y1="25.3103" x2="34.3213" y2="35.1327" gradientUnits="userSpaceOnUse">
<stop stopColor="white"/>
<stop offset="1" stopColor="white" stop-opacity="0"/>
</linearGradient>
<linearGradient id="paint80_linear_80_6248" x1="25.3742" y1="24.4357" x2="35.1967" y2="34.2581" gradientUnits="userSpaceOnUse">
<stop stopColor="white"/>
<stop offset="1" stopColor="white" stop-opacity="0"/>
</linearGradient>
<linearGradient id="paint81_linear_80_6248" x1="37.0249" y1="26.595" x2="46.8474" y2="36.4174" gradientUnits="userSpaceOnUse">
<stop stopColor="white"/>
<stop offset="1" stopColor="white" stop-opacity="0"/>
</linearGradient>
<linearGradient id="paint82_linear_80_6248" x1="38.3095" y1="25.3212" x2="48.1319" y2="35.1437" gradientUnits="userSpaceOnUse">
<stop stopColor="white"/>
<stop offset="1" stopColor="white" stop-opacity="0"/>
</linearGradient>
<linearGradient id="paint83_linear_80_6248" x1="39.1825" y1="24.4217" x2="49.0049" y2="34.2441" gradientUnits="userSpaceOnUse">
<stop stopColor="white"/>
<stop offset="1" stopColor="white" stop-opacity="0"/>
</linearGradient>
<linearGradient id="paint84_linear_80_6248" x1="11.353" y1="120.749" x2="35.2755" y2="144.671" gradientUnits="userSpaceOnUse">
<stop stopColor="white"/>
<stop offset="1" stopColor="white" stop-opacity="0"/>
</linearGradient>
<linearGradient id="paint85_linear_80_6248" x1="14.4817" y1="117.626" x2="38.4042" y2="141.549" gradientUnits="userSpaceOnUse">
<stop stopColor="white"/>
<stop offset="1" stopColor="white" stop-opacity="0"/>
</linearGradient>
<linearGradient id="paint86_linear_80_6248" x1="16.6131" y1="115.486" x2="40.5356" y2="139.408" gradientUnits="userSpaceOnUse">
<stop stopColor="white"/>
<stop offset="1" stopColor="white" stop-opacity="0"/>
</linearGradient>
<linearGradient id="paint87_linear_80_6248" x1="39.1121" y1="112.154" x2="68.6934" y2="141.736" gradientUnits="userSpaceOnUse">
<stop stopColor="white"/>
<stop offset="1" stopColor="white" stop-opacity="0"/>
</linearGradient>
<linearGradient id="paint88_linear_80_6248" x1="43.7516" y1="109.24" x2="72.9173" y2="138.406" gradientUnits="userSpaceOnUse">
<stop stopColor="white"/>
<stop offset="1" stopColor="white" stop-opacity="0"/>
</linearGradient>
<linearGradient id="paint89_linear_80_6248" x1="46.8423" y1="107.164" x2="75.885" y2="136.206" gradientUnits="userSpaceOnUse">
<stop stopColor="white"/>
<stop offset="1" stopColor="white" stop-opacity="0"/>
</linearGradient>
<clipPath id="clip0_80_6248">
<rect width="131" height="131" rx="65.5" fill="white"/>
</clipPath>
</defs>
</svg>
